<?xml version="1.0" encoding="UTF-8" standalone="no"?>
<svg xmlns:xlink="http://www.w3.org/1999/xlink" height="192.9px" width="198.55px" xmlns="http://www.w3.org/2000/svg">
  <g transform="matrix(1.0, 0.0, 0.0, 1.0, 0.0, 0.0)">
    <path d="M131.05 189.8 Q131.05 189.55 131.6 189.15 132.05 188.75 132.9 188.3 L133.75 186.75 Q135.7 183.2 136.85 178.3 136.8 176.15 137.85 172.7 L139.6 167.0 140.2 162.2 141.25 155.8 143.0 144.55 145.45 133.35 Q146.3 129.3 147.1 126.25 L148.15 122.05 Q149.4 114.4 150.2 110.6 151.55 103.85 155.4 100.45 L155.5 100.6 155.6 101.2 Q155.6 102.3 149.55 123.95 L148.95 126.25 Q146.2 136.8 144.7 146.45 L142.2 162.2 140.2 173.2 Q138.3 182.15 136.55 186.5 L138.95 185.4 Q145.75 182.45 147.25 182.05 150.7 181.0 156.9 178.4 161.1 177.15 167.6 176.35 L178.45 175.4 177.8 172.5 177.7 168.65 Q177.7 165.45 177.85 162.2 178.2 152.6 179.6 142.15 180.65 134.4 182.3 126.25 184.3 116.1 187.25 105.25 L188.6 100.25 191.0 91.25 193.8 80.3 194.25 78.25 Q196.8 66.3 196.8 56.85 L194.7 46.35 191.35 31.15 191.2 30.95 191.15 31.05 188.65 34.95 Q186.65 37.6 183.3 37.6 181.45 37.6 179.6 36.2 L177.95 34.65 Q176.45 32.95 175.6 31.3 175.2 31.55 174.0 33.15 173.0 34.45 171.4 34.9 L168.0 34.9 167.05 34.3 167.0 34.3 166.9 34.25 166.8 34.7 165.6 42.25 161.85 63.2 159.1 78.25 Q155.95 95.7 155.5 99.9 L154.8 100.25 Q153.9 99.45 153.9 97.5 L157.35 78.25 159.7 65.2 163.8 42.25 165.3 33.2 Q162.05 30.85 162.05 29.2 162.05 27.95 162.9 27.8 163.65 28.45 164.7 30.4 L165.45 31.25 165.4 30.9 164.8 27.3 Q165.3 27.1 164.45 27.1 L162.85 27.55 162.8 27.6 Q160.55 28.65 156.6 32.0 150.8 36.9 150.2 36.9 146.95 36.9 146.8 27.3 L146.7 20.65 Q146.55 17.65 145.7 17.65 143.1 17.65 140.1 19.45 137.1 21.25 136.2 21.25 135.0 21.25 134.7 20.45 L134.4 19.65 Q132.3 19.65 126.65 21.15 121.05 22.6 119.05 22.6 115.05 22.6 113.45 21.35 112.75 20.75 111.8 18.6 110.15 14.6 101.25 14.6 92.85 14.6 89.25 15.9 85.65 17.15 83.3 17.15 80.9 17.15 79.85 15.75 79.35 15.1 78.55 12.7 77.15 8.2 71.85 8.2 64.55 8.2 57.5 13.05 56.0 14.05 53.2 16.35 L50.85 17.85 Q49.5 17.85 47.55 11.7 L45.0 2.85 Q42.6 7.4 35.65 16.75 30.0 25.3 30.2 31.2 L29.5 31.45 29.25 31.15 27.0 42.25 26.55 44.2 Q23.75 57.0 22.15 61.9 L16.95 77.3 Q13.8 86.75 12.25 93.05 11.55 95.8 10.6 100.3 L6.5 121.35 Q1.7 147.15 1.7 155.35 1.7 164.55 4.4 174.0 16.35 175.5 20.75 180.55 23.0 183.2 24.45 184.1 27.3 185.75 33.0 186.35 L43.2 186.35 Q44.25 185.6 52.5 184.85 L61.45 184.05 74.7 184.05 109.85 191.0 120.6 191.0 Q122.9 190.55 124.2 189.85 L126.15 188.8 126.75 188.95 127.0 189.6 Q127.0 190.6 124.9 191.65 123.0 192.6 121.1 192.9 L109.45 192.9 74.55 185.9 61.55 185.9 52.8 187.1 43.4 188.1 32.85 188.1 Q27.05 187.5 23.95 185.8 22.25 184.85 19.8 182.25 15.05 177.15 3.95 175.85 0.95 171.4 0.25 165.6 0.0 163.55 0.0 155.2 0.0 146.9 4.8 120.85 8.55 100.7 10.6 92.2 12.05 86.25 15.4 76.35 L20.65 60.5 Q21.25 58.65 23.7 44.45 L24.15 42.25 Q25.75 34.65 28.85 30.4 28.6 29.7 28.6 28.75 28.6 24.95 33.65 17.05 39.5 8.65 40.95 5.95 44.1 0.15 45.8 0.0 47.1 -0.1 47.85 3.45 L49.0 10.6 Q49.8 14.85 51.2 15.8 53.4 13.3 57.0 10.95 64.2 6.3 72.2 6.3 78.7 6.3 80.45 10.05 L81.3 13.05 Q81.65 14.8 82.05 15.3 L84.8 15.3 88.4 14.0 Q93.4 12.75 101.25 12.75 110.55 12.75 112.8 16.8 L114.5 19.55 Q115.8 20.8 118.8 20.8 121.6 20.8 126.8 19.4 L132.25 17.85 135.0 17.85 135.75 18.75 136.35 19.2 Q137.25 19.2 143.5 15.8 L146.55 15.8 Q148.85 19.25 149.1 24.85 L149.45 34.6 149.65 34.85 150.3 35.05 156.8 29.85 Q163.5 24.65 164.8 24.65 165.25 24.65 165.6 25.0 166.4 25.7 166.8 28.05 167.15 29.8 167.15 31.6 L167.15 32.1 167.1 32.5 168.6 33.1 170.9 33.05 173.05 30.8 Q174.75 29.1 175.35 29.1 175.85 29.1 179.2 32.45 L179.6 32.85 Q182.6 35.75 183.3 35.75 185.6 35.75 187.6 32.15 189.6 28.5 191.55 28.5 192.8 28.5 195.8 42.55 L198.55 56.7 Q198.55 67.25 196.55 78.25 L194.9 85.75 193.5 91.25 191.0 100.25 186.3 116.45 Q185.0 121.25 184.0 126.25 179.2 149.3 179.75 176.45 L178.95 176.9 178.65 176.05 170.15 177.45 167.6 177.9 Q157.45 179.9 148.25 183.7 139.85 187.2 134.95 189.45 134.1 190.55 133.25 190.55 L132.7 190.5 131.9 190.9 131.6 190.55 131.05 189.8" fill="#000000" fill-rule="evenodd" stroke="none"/>
    <path d="M164.7 30.4 Q163.65 28.45 162.9 27.8 162.05 27.95 162.05 29.2 162.05 30.85 165.3 33.2 L163.8 42.25 159.7 65.2 157.35 78.25 153.9 97.5 Q153.9 99.45 154.8 100.25 L155.5 99.9 Q155.95 95.7 159.1 78.25 L161.85 63.2 165.6 42.25 166.8 34.7 166.9 34.25 167.0 34.3 167.05 34.3 168.0 34.9 171.4 34.9 Q173.0 34.45 174.0 33.15 175.2 31.55 175.6 31.3 176.45 32.95 177.95 34.65 L179.6 36.2 Q181.45 37.6 183.3 37.6 186.65 37.6 188.65 34.95 L191.15 31.05 191.2 30.95 191.35 31.15 194.7 46.35 196.8 56.85 Q196.8 66.3 194.25 78.25 L193.8 80.3 191.0 91.25 188.6 100.25 187.25 105.25 Q184.3 116.1 182.3 126.25 180.65 134.4 179.6 142.15 178.2 152.6 177.85 162.2 177.7 165.45 177.7 168.65 L177.8 172.5 178.45 175.4 167.6 176.35 Q161.1 177.15 156.9 178.4 150.7 181.0 147.25 182.05 145.75 182.45 138.95 185.4 L136.55 186.5 Q138.3 182.15 140.2 173.2 L142.2 162.2 144.7 146.45 Q146.2 136.8 148.95 126.25 L149.55 123.95 Q155.6 102.3 155.6 101.2 L155.5 100.6 155.4 100.45 Q151.55 103.85 150.2 110.6 149.4 114.4 148.15 122.05 L147.1 126.25 Q146.3 129.3 145.45 133.35 L143.0 144.55 141.25 155.8 140.2 162.2 139.6 167.0 137.85 172.7 Q136.8 176.15 136.85 178.3 135.7 183.2 133.75 186.75 L132.9 188.3 Q132.05 188.75 131.6 189.15 131.05 189.55 131.05 189.8 L127.0 189.6 126.75 188.95 126.15 188.8 124.2 189.85 Q122.9 190.55 120.6 191.0 L109.85 191.0 74.7 184.05 61.45 184.05 52.5 184.85 Q44.25 185.6 43.2 186.35 L33.0 186.35 Q27.3 185.75 24.45 184.1 23.0 183.2 20.75 180.55 16.35 175.5 4.4 174.0 1.7 164.55 1.7 155.35 1.7 147.15 6.5 121.35 L10.6 100.3 Q11.55 95.8 12.25 93.05 13.8 86.75 16.95 77.3 L22.15 61.9 Q23.75 57.0 26.55 44.2 L27.0 42.25 29.25 31.15 29.5 31.45 30.2 31.2 Q30.0 25.3 35.65 16.75 42.6 7.4 45.0 2.85 L47.55 11.7 Q49.5 17.85 50.85 17.85 L53.2 16.35 Q56.0 14.05 57.5 13.05 64.55 8.2 71.85 8.2 77.15 8.2 78.55 12.7 79.35 15.1 79.85 15.75 80.9 17.15 83.3 17.15 85.65 17.15 89.25 15.9 92.85 14.6 101.25 14.6 110.15 14.6 111.8 18.6 112.75 20.75 113.45 21.35 115.05 22.6 119.05 22.6 121.05 22.6 126.65 21.15 132.3 19.65 134.4 19.65 L134.7 20.45 Q135.0 21.25 136.2 21.25 137.1 21.25 140.1 19.45 143.1 17.65 145.7 17.65 146.55 17.65 146.7 20.65 L146.8 27.3 Q146.95 36.9 150.2 36.9 150.8 36.9 156.6 32.0 160.55 28.65 162.8 27.6 L162.85 27.55 164.45 27.1 Q165.3 27.1 164.8 27.3 L165.4 30.9 164.7 30.4" fill="#b37949" fill-rule="evenodd" stroke="none"/>
  </g>
</svg>
