<svg id="Layer_1" data-name="Layer 1" xmlns="http://www.w3.org/2000/svg" viewBox="0 0 176.15 112.68"><defs><style>.cls-1,.cls-2,.cls-3,.cls-4{fill-rule:evenodd;}.cls-2{fill:#ddd;}.cls-3{fill:#333;}.cls-4{fill:#202020;}</style></defs><title>bins2</title><path class="cls-1" d="M497.61,102.71c.09.05.13.17.13.37a.31.31,0,0,1-.13.23l-.33.27-2.85.27-1,.35,2.83,1.51c.23.12.34.45.34,1a3.32,3.32,0,0,1-.07.9,1.8,1.8,0,0,1-1,.72l-.34-.15a.61.61,0,0,1-.13-.44l.28-.53.27-.47c0-.4-.53-.78-1.6-1.13a3.51,3.51,0,0,1-1.2-.62,1,1,0,0,1-.4-.76,1.15,1.15,0,0,1,.33-.92,4,4,0,0,1,2.42-.55l2.07-.12.33.1m1.73,2.47a6.39,6.39,0,0,1,.37-1.3l.22-.5a7.62,7.62,0,0,1,.26,1.68l0,1.4,3.32-.26-.1-.55a4.74,4.74,0,0,1,.48-2.32c.31-.58.47.16.47,2.22l.06.58h0V106l.33.08c.1,0,.15.16.15.35a.66.66,0,0,1-.3.54l.22.8.48,1.58v.28l-.07.15-.05.1a.53.53,0,0,1-.38.1c-.37,0-.71-.71-1-2.15l-.08-.55-3.38.24.08.55.18,1.41c0,.31,0,.39,0,.22l-.11.2-.4.08-.44-.05-.08,0c-.11-.94-.18-1.77-.2-2.48l-.18-.12-.05-.3.2-.3h0a13.62,13.62,0,0,1,0-1.52m-7.5.77a5.58,5.58,0,0,1,1.19,1.76l-.09.24c-.06.11-.2.16-.4.16s-1-.5-2.15-1.51l-1.81.56h-.22a13.54,13.54,0,0,0,.32,1.57v.85l-.1.12a.48.48,0,0,1-.37.11c-.44,0-.79-.57-1-1.71l-.2-1.22-.19-3.12.07-1.23a21.79,21.79,0,0,1,3.42,2.07,12,12,0,0,1,1.56,1.35m-4.1-1.69a14.1,14.1,0,0,1,.47,2,3.39,3.39,0,0,1,1.07-.43l.23,0-1.73-1.72,0,.18m-18.5,1.15-.05-.26a7.88,7.88,0,0,1,2.79-.75,25.34,25.34,0,0,1,5.45-.35l.05.06,0,.3-.12.34a1.21,1.21,0,0,1-.36.18l-3.35.25,1.78,6.1-.13.12a.55.55,0,0,1-.39.11c-.45,0-.92-1-1.4-2.86l-.56-2.92.06-.53a7.76,7.76,0,0,0-1.88.26,3.34,3.34,0,0,1-1,.2,1.4,1.4,0,0,1-.9-.25m14.59-.25-.12-.36a8.68,8.68,0,0,0-2.62.4,13.87,13.87,0,0,1-2.11.53l.15.55.1.73v.1l3.41-.71q1.29-.34,1.29-.75l-.1-.49m.93,1.52a6,6,0,0,1-2.05.87l1.25.33a3.09,3.09,0,0,1,1.32.6l-.14.47-.81.11a37.27,37.27,0,0,0-4.59-.85,2.81,2.81,0,0,0,.69,1.05,2.92,2.92,0,0,1,.68,1l-.13.29a.57.57,0,0,1-.44.15c-.79,0-1.46-.84-2-2.5l-.63-2.55a.94.94,0,0,1,.16-.57,1.19,1.19,0,0,1,.82-.5l5.18-.87a2.06,2.06,0,0,1,.8.95l.05,1a1.94,1.94,0,0,1-.13,1m-41.13-1.82,0,.3q0,.39-.63.6l-1.59.5v.09a17.36,17.36,0,0,1,3.57,1l.47.22c.81.44,1.21,1,1.21,1.53s-.42,1.15-1.26,1.7a6.29,6.29,0,0,1-3.39.88l-.41-.06-.19-.17-.05-.28c.23-.49.93-.89,2.12-1.2l2.17-.45c.05.1.08,0,.08-.3,0-.56-1-1-2.93-1.45a5.79,5.79,0,0,1-2.75-1.07.58.58,0,0,1-.19-.42c0-.46.35-.83,1.05-1.1a8.49,8.49,0,0,1,2.64-.41l.05.06m1.41,1.55L445,106a18.19,18.19,0,0,1,2.42-.65l2.78-.42q.09-.3.24,0l3-.24v-.1l.32.12a.48.48,0,0,1,.13.4.71.71,0,0,1-.12.45l-.33.18-2.65.07.87,3.42.9,2.81.41,1.7h-.05l-.6,0-.28.05-.25,0,0,0-.69-2.72-1-4.71v-.6l-1.41.25-2.65.56-.67,0a.48.48,0,0,1-.32-.15m-5.9,3.89a1.84,1.84,0,0,1-1.71,1q-5.32,0-5.32-3.1a3.33,3.33,0,0,1,.12-1,1.8,1.8,0,0,1,.31-.7c.53-.68,1.55-1,3.09-.92a.94.94,0,0,1,.31.22l.14.22-.12.43a4.58,4.58,0,0,0-2.47.77,1.33,1.33,0,0,0-.41,1q0,.45.78,1.08a4.43,4.43,0,0,0,2.95.87H438l.31-.7a2.3,2.3,0,0,0,.27-.89,1.09,1.09,0,0,0-.45-.93l-1.25-1v-.45l.2,0,.45,0a1.75,1.75,0,0,1,1.73,1,3.42,3.42,0,0,1,.29,1.5,3.23,3.23,0,0,1-.39,1.59m-24-3.6c.92-1,1.81-1.27,2.67-.82a1.87,1.87,0,0,1,1.11,1.75,5.21,5.21,0,0,1-.56,2.28,2.92,2.92,0,0,1-2.75,1.8c-1.78,0-2.95-.28-3.52-.85a1.05,1.05,0,0,1-.23-.4,2.14,2.14,0,0,1-.14-.81,6.15,6.15,0,0,1,.05-.92l.07-.2a3.66,3.66,0,0,1,.37-.8c.17-.3.7-.55,1.56-.73l1.37-.3M413,108.61a2.28,2.28,0,0,0-.39.94.68.68,0,0,0,.39.58,5.74,5.74,0,0,0,1.46.53h1.94c.41-.09.77-.54,1.1-1.36a5.11,5.11,0,0,0,.4-1.67c0-.81-.56-1-1.69-.7a13.16,13.16,0,0,1-2.53.88,2.05,2.05,0,0,0-.68.8m-4.09-.68-1.58-1.1a5.78,5.78,0,0,0-3.18-1.1c-.59,0-1.06.42-1.42,1.25a4.91,4.91,0,0,0-.35,1.3,2.19,2.19,0,0,0,1.47,2.15,16.66,16.66,0,0,0,5.91.72l.49.08.05,0,.05.3a.67.67,0,0,1-.45.65,5.93,5.93,0,0,1-2.1.25q-6.34,0-6.34-4.27c0-2.72,1.13-3.9,3.37-3.53a6.64,6.64,0,0,1,2.65,1.12,5.92,5.92,0,0,1,1.92,1.91l-.1.12-.39.1m22-1a2,2,0,0,1-.48.81,2,2,0,0,1-1.57.72l-.37,0v0l-.15-.1,0-.34c0-.06.23-.24.67-.53l1-.68,0-.29-1.6.15a4.44,4.44,0,0,0-.95.22l0,.08.42.87a12,12,0,0,1,1.21,4v.54l-.09.1-.36.08c-.26,0-.67-1-1.24-2.93l-.36-1.44c-.21,0-.4-.29-.57-.7l-.15-.43-.07-.33a.71.71,0,0,1,.44-.67,5.76,5.76,0,0,1,1.95-.43l1.7-.09a1.08,1.08,0,0,1,.63.59l0,.65,0,.25m-11.45.71a2.63,2.63,0,0,1,.13-.83c.33-.75,1.11-.32,2.37,1.28a4.12,4.12,0,0,0,.62-1.08,1.28,1.28,0,0,1,1.08-.78c.28,0,.58.44.9,1.33l.33,1,.57,2.38-.07.73-.05.1-.35.09c-.27,0-.57-.59-.88-1.77a20.28,20.28,0,0,1-.55-2.58,5.66,5.66,0,0,0-.62,1.38c-.27.72-.54,1.08-.8,1.08s-.52-.31-.9-1l-.7-1.25a23.92,23.92,0,0,0-.23,3.57l-.43.13a1.66,1.66,0,0,1-.42-1.05,10.51,10.51,0,0,1-.05-1.18c0-.68,0-1.22.05-1.62m-34.28-.16q0,.34-1.05.81a6.2,6.2,0,0,1-2.57.54h-.17v.25l.34,1,2.06-.17a9.48,9.48,0,0,1,1.67,0l.05,0,0,.29q0,.24-.36.3a10.66,10.66,0,0,0-2,.6h-1.91a2.66,2.66,0,0,1-.72-1.45l-.05-.29-.07-1.7a1.8,1.8,0,0,1,.24-1.38c.51-.78,1.66-1,3.45-.67l.33.07c.1,0,.15.18.15.37l-.48.51-2.74.09v1.2l1-.32a17.87,17.87,0,0,1,2.68-.5l.07.08.05.34m-5.45,2.21.13.14,0,.21-.16.25-.32.25h-3a1.78,1.78,0,0,1-.45-1l0-1a2.78,2.78,0,0,1-.08-1,.94.94,0,0,1,.08-.33.89.89,0,0,1,.89-.55l.06,2.85,2.57.08.32.08m-15-3.15.05.3c0,.25-.31.45-.93.62s-.95.45-.95.87.06.55.18.63a8.63,8.63,0,0,0,2.74.47l.33.08c.09,0,.13.16.13.35l-.46.5h-2.07a2.44,2.44,0,0,1-1.67-.95,3.24,3.24,0,0,1-.11-1.08,2.71,2.71,0,0,1,.16-1.24q.51-.63,2.55-.6l.05,0m-4.45-.4c-.17,0-1.08.2-2.71.6l-2.3.59.21.45a4.84,4.84,0,0,1,2.12-.45l1.8.1,0,.06,0,.29c0,.18-.45.38-1.36.58l-1.94.28h-.4a6.37,6.37,0,0,1,.32,1.85v.28l0,0-.06.2-.07.07-.33.07a.71.71,0,0,1-.49-.25l-.08-.12a3.15,3.15,0,0,1-.45-1,19.16,19.16,0,0,0-.6-2v-1.43a1,1,0,0,1,.65.21,2.91,2.91,0,0,1,1.57-.68l3.75-.6.31.23c.09.1.14.17.14.22l-.14.43m.54,4.3a.39.39,0,0,1-.3.44l-.94.25h-2.83l-.37-.4-.1-.14c0-.19.06-.3.17-.35l.3-.06,2.65-.12a9.43,9.43,0,0,1,1.32,0l0,.06.05.3m-9-2.43a2.59,2.59,0,0,1-1.51.7,18.25,18.25,0,0,1,4.45,2.2l-.27.47a.6.6,0,0,1-.42.11l-6.4-2.4a8.85,8.85,0,0,1,.45,2.29l0,1.08-.43.18a11.89,11.89,0,0,1-.85-2.6,14.86,14.86,0,0,1-.59-3l0-.3,0-.25.05-.18c0-.18.1-.25.19-.22a3.4,3.4,0,0,1,.68-.42,5.9,5.9,0,0,1,2-.58c1.95-.21,2.93.47,2.93,2a1.29,1.29,0,0,1-.27.87m22.55-1.47.05.3a2,2,0,0,0-.73.29,7.35,7.35,0,0,0-2.1,1.86v1.29a4,4,0,0,1,1.6.35,2,2,0,0,1,.68.58l-.2.38-.4.1-.8-.16-1.35-.22a1.32,1.32,0,0,1-.43-.78,5.65,5.65,0,0,1,0-.9,4.38,4.38,0,0,1,.3-2l.2-.23a4.27,4.27,0,0,1,3.18-.89l.05,0m-3.83.35-.88.79-.54.38,0,.38a2.6,2.6,0,0,0,.17,1.35v1.85l-.47.24a2.59,2.59,0,0,1-.62-1.52l0-1.57v-.33c-.43-.06-.91-.51-1.43-1.37l-.67-1.21c0-1,.3-1.19.9-.5a21.41,21.41,0,0,1,1.38,1.91l.89-.73,1-.73c.31,0,.43,0,.35.1l.17,0s.06.1.06.28a1,1,0,0,1-.28.63M350,106.16a4.85,4.85,0,0,0-2.17.57l-.8.47.15.41.32.92a2.22,2.22,0,0,1,1.62-1,5.69,5.69,0,0,0,1.88-.45l-.45-.51c-.28-.29-.46-.44-.55-.44" transform="translate(-341.61 -96.36)"/><path class="cls-2" d="M487.74,104.26l0-.18,1.73,1.72-.23,0a3.39,3.39,0,0,0-1.07.43,14.1,14.1,0,0,0-.47-2m-3.91.9.1.49q0,.41-1.29.75l-3.41.71V107l-.1-.73-.15-.55a13.87,13.87,0,0,0,2.11-.53,8.68,8.68,0,0,1,2.62-.4l.12.36M413,108.61a2.05,2.05,0,0,1,.68-.8,13.16,13.16,0,0,0,2.53-.88c1.13-.35,1.69-.11,1.69.7a5.11,5.11,0,0,1-.4,1.67c-.33.82-.69,1.27-1.1,1.36h-1.94a5.74,5.74,0,0,1-1.46-.53.68.68,0,0,1-.39-.58,2.28,2.28,0,0,1,.39-.94m-63-2.45c.09,0,.27.15.55.44l.45.51a5.69,5.69,0,0,1-1.88.45,2.22,2.22,0,0,0-1.62,1l-.32-.92-.15-.41.8-.47a4.85,4.85,0,0,1,2.17-.57" transform="translate(-341.61 -96.36)"/><path class="cls-3" d="M393.61,120.76a1.25,1.25,0,0,0-.45.89V121h.08l.34-.25,0,0" transform="translate(-341.61 -96.36)"/><path class="cls-1" d="M358.38,208.26l-1.57,0A173.2,173.2,0,0,1,353.74,191l-1.66-12-.34-2.33-.4-2.77q-1.41-9.83-2.46-15l-.52-2.6q-2.16-11-3.9-22-1.31-8.28-2-14.65a115.68,115.68,0,0,1-.85-12.47c0-1,0-1.7.05-2.11a6.69,6.69,0,0,1,.38-1.79l-.25-.08a.54.54,0,0,1-.13-.42q0-.45,10.68-1.86a122.1,122.1,0,0,1,17-1.4l7.25-.1,36.65-2.54,17.87-.1,7.83-.38v-.1h66.78l.57.18a18.58,18.58,0,0,0,5.45.57c1.73,0,2.82.12,3.25.5v0a1.68,1.68,0,0,1,1.6,0V109a59.5,59.5,0,0,1,1.08,8.47l0,2.25,0,5.62c0,3.74-.08,6.59-.23,8.53v25.88q-.76,10.26-1.64,19.3l-.76,7.47q-1.44,13.32-2.64,18h.39l.38.1c.11.06.17.21.17.45l0,.39-.11.18-1.12.07c-.31.89-.6,1.33-.88,1.33l-.52,0-.07-.07-.15-.11s-.05-.16-.05-.4l.05-.55-.18,0-3.38.07-3.64.16-7.45.12-2.51.25-5.9.32-14.5.11a16.4,16.4,0,0,0-3,.4l-5,.42-53.9.12-2.92.21-4,.34-11.76.05q-11.81.07-12.07.15l-5.77.11-3.05.19-3,.16h-9.3l-.4-.13a.62.62,0,0,1-.15-.5l0-.12a.36.36,0,0,1,.17-.33l.36-.05,9.19-.08,3.15-.17,3.13-.18,6.32-.24,23.28-.11a46.79,46.79,0,0,1,6.92-.57l53.91-.12,5.05-.41a14.16,14.16,0,0,1,2.77-.4l14.45-.12,3.05-.22,5.23-.33c5.22-.08,7.94-.15,8.17-.23l6.43-.12.47-.05c.26-1.82.77-4.9,1.55-9.23q1.89-10.52,2.08-12.47l.39-3.82q.81-8.73,1.65-19.65V133.16q.23-2.53.23-7.75l0-5.7,0-1.8a54.7,54.7,0,0,0-1.08-8.22V98.43l-.25-.35-.17-.3-.2.3a.5.5,0,0,1-.43.18l-8.12-.72-.47-.11h-67l-7.65.45-17.94.1q-18.81,1-36.93,2.56l-6.95.09-17.27,1.55-3.35.45-5.35.73h-1.18a43.28,43.28,0,0,1,.78,6.4l.39,6.67.26,3.28.24,3.35q.31,3.87.63,6.63.65,5.49,2.23,13.29l2.75,13.28,0,.12q1.14,5.94,3.35,20.33l.35,2.33.56,3.75q2.39,15.83,4.54,25.47" transform="translate(-341.61 -96.36)"/><path class="cls-2" d="M358.66,208.29l-.28,0q-2.16-9.64-4.54-25.47l-.56-3.75-.35-2.33q-2.21-14.39-3.35-20.33l0-.12L346.79,143q-1.57-7.8-2.23-13.29-.31-2.76-.63-6.63l-.24-3.35-.26-3.28-.39-6.67a43.28,43.28,0,0,0-.78-6.4h1.18l5.35-.73,3.35-.45,17.27-1.55,6.95-.09Q394.48,99,413.29,98l17.94-.1,7.65-.45h67l.47.11,8.12.72a.5.5,0,0,0,.43-.18l.2-.3.17.3.25.35v11.26a54.7,54.7,0,0,1,1.08,8.22l0,1.8,0,5.7q0,5.22-.23,7.75v26.23q-.84,10.92-1.65,19.65l-.39,3.82q-.2,1.95-2.08,12.47c-.78,4.33-1.29,7.41-1.55,9.23l-.47.05-6.43.12c-.23.08-2.95.15-8.17.23l-5.23.33-3.05.22-14.45.12a14.16,14.16,0,0,0-2.77.4l-5.05.41-53.91.12a46.79,46.79,0,0,0-6.92.57l-23.28.11-6.32.24-3.13.18-3.15.17-9.19.08-.36.05a.36.36,0,0,0-.17.33m5.15-100.83c.62-.17.93-.37.93-.62l-.05-.3-.05-.05q-2,0-2.55.6a2.71,2.71,0,0,0-.16,1.24,3.16,3.16,0,0,0,.11,1.08,2.46,2.46,0,0,0,1.67,1h2.07l.46-.5c0-.19,0-.3-.13-.35l-.33-.08A8.33,8.33,0,0,1,363,109q-.18-.12-.18-.63c0-.41.32-.7.95-.87m-7.57,3.13.1.14.37.4h2.83l.94-.25a.39.39,0,0,0,.3-.44l0-.3-.05-.06a9.43,9.43,0,0,0-1.32,0l-2.65.12-.3.06a.35.35,0,0,0-.17.35m3.17-3.1-.05-.06-1.8-.1a4.84,4.84,0,0,0-2.12.45l-.21-.45,2.3-.59,2.71-.6.14-.43-.14-.22a.75.75,0,0,0-.31-.23l-3.75.6a2.91,2.91,0,0,0-1.57.68,1,1,0,0,0-.65-.21v1.43a19.16,19.16,0,0,1,.6,2,3,3,0,0,0,.45,1,1.51,1.51,0,0,1-.28.15,18.61,18.61,0,0,0-4.45-2.2,2.53,2.53,0,0,0,1.51-.7,1.29,1.29,0,0,0,.27-.87c0-1.56-1-2.24-2.93-2a6,6,0,0,0-2,.58l-.68.42c-.09,0-.15,0-.19.22l-.05.18,0,.25,0,.3a14.74,14.74,0,0,0,.59,3,12.27,12.27,0,0,0,.85,2.6l.43-.18,0-1.08a9,9,0,0,0-.45-2.29l6.4,2.4c.22,0,.35,0,.42-.11l.27-.47.36,0a.71.71,0,0,0,.49.25l.33-.07L356,111l.06-.2,0,0v-.28a6.1,6.1,0,0,0-.32-1.85h.4l1.94-.28c.91-.2,1.36-.39,1.36-.58l0-.29m17.37-.81a.89.89,0,0,0-.89.55,1,1,0,0,0-.08.33,3,3,0,0,0,.08,1l0,1a1.75,1.75,0,0,0,.45,1h3l.32-.25.16-.25,0-.21-.13-.14-.32-.08-2.57-.08-.06-2.85m-6-.7-.17,0c.08-.07,0-.1-.35-.1l-1,.73-.89.73a23,23,0,0,0-1.38-1.91c-.6-.69-.9-.52-.9.5a7.07,7.07,0,0,1,.67,1.21c.52.86,1,1.32,1.43,1.37v.33l0,1.57a2.59,2.59,0,0,0,.62,1.52l.47-.24v-1.85a2.56,2.56,0,0,1-.17-1.35l0-.38.54-.38.88-.79a1,1,0,0,0,.28-.63c0-.18,0-.27-.06-.28m2.93,1.15a2.22,2.22,0,0,1,.73-.29l-.05-.3,0-.05a4.27,4.27,0,0,0-3.18.89l-.2.23a4.41,4.41,0,0,0-.3,2,5.65,5.65,0,0,0,.05.9,1.32,1.32,0,0,0,.43.78l1.35.22.8.16.4-.1.2-.38a2.07,2.07,0,0,0-.68-.58,4,4,0,0,0-1.6-.35V109a7.35,7.35,0,0,1,2.1-1.86m10.47,1.16q1-.47,1.05-.81l-.05-.34-.07-.08a17.87,17.87,0,0,0-2.68.5,6.08,6.08,0,0,0-1,.32v-1.2l2.74-.09.48-.51a.39.39,0,0,0-.15-.37l-.33-.07c-1.79-.33-2.94-.11-3.45.67a1.8,1.8,0,0,0-.24,1.38l.07,1.7.05.29a2.66,2.66,0,0,0,.72,1.45h1.91a10.66,10.66,0,0,1,2-.6q.36-.06.36-.3l0-.29-.05,0a10.58,10.58,0,0,0-1.67,0l-2.06.17-.17-.5-.17-.5v-.25h.17a6.2,6.2,0,0,0,2.57-.54m11.63,44.2V139.73q-.21-1.89-.33-4.77l-.19-4.82a32.29,32.29,0,0,0-1.68-9.4l0,0v0a.34.34,0,0,0,.14-.24c0-.18-.05-.3-.14-.35l-.35-.08-2.63,0-.38.07-4.35.08-.32.07a.23.23,0,0,0-.12.12l-13.66-.09c-.18-.06-3.74-.1-10.69-.1v.1a71.81,71.81,0,0,0-10.45,1.09l-.66.15c-.09-.25-.16-.23-.2,0-1.47.33-2.2.64-2.2.93s0,.3.05.33l.2.15.4.05,1.45-.2,0,1.3q0,6.6.83,15a77.35,77.35,0,0,0,2.29,13.93l.41-.13.35.51q-.48.27-.48.54l0,.5a1.23,1.23,0,0,0,.67,0h11l1.19.15,1.16.13,5.39.1.3.08h10.78c3.2-.38,5.36-.71,6.47-1,1.55-.37,2.33-.84,2.33-1.42l2.45-.27,0,.07v.08a.8.8,0,0,0,.39.2l.06,0,.29-.13a.46.46,0,0,1,.18-.09m13.52-44.68.1-.12a6,6,0,0,0-1.92-1.91,6.78,6.78,0,0,0-2.65-1.12c-2.24-.37-3.37.81-3.37,3.53s2.12,4.27,6.34,4.27a5.93,5.93,0,0,0,2.1-.25.67.67,0,0,0,.45-.65l-.05-.3,0-.05-.49-.08a16.66,16.66,0,0,1-5.91-.72,2.19,2.19,0,0,1-1.47-2.15,5,5,0,0,1,.35-1.3c.36-.83.83-1.25,1.42-1.25a5.78,5.78,0,0,1,3.18,1.1l1.58,1.1.39-.1m5.78-1.13-1.37.3c-.86.19-1.38.43-1.56.73a3.66,3.66,0,0,0-.37.8l-.07.2a6.15,6.15,0,0,0-.05.92,2.14,2.14,0,0,0,.14.81l.23.4c.57.57,1.74.85,3.52.85a2.92,2.92,0,0,0,2.75-1.8,5,5,0,0,0,.56-2.28,1.87,1.87,0,0,0-1.11-1.75c-.86-.44-1.75-.17-2.67.82m9.5.88c-.32-.89-.62-1.33-.9-1.33a1.28,1.28,0,0,0-1.08.78l-.62,1.08c-1.25-1.6-2-2-2.37-1.28a2.63,2.63,0,0,0-.13.83c0,.4,0,.94,0,1.62a10.38,10.38,0,0,0,0,1.18,1.61,1.61,0,0,0,.42,1l.43-.13a24,24,0,0,1,.23-3.57l.7,1.25c.38.64.68.95.9.95s.53-.36.8-1.08a6.39,6.39,0,0,1,.62-1.38,20.28,20.28,0,0,0,.55,2.58c.31,1.18.61,1.77.88,1.77l.35-.09.05-.1.07-.73-.57-2.38-.33-1m2.07-1.6a.72.72,0,0,0-.44.67l.07.33.15.43c.17.42.36.65.57.7l.36,1.44c.57,2,1,2.93,1.24,2.93l.36-.08.09-.1v-.54a12,12,0,0,0-1.21-4l-.42-.87,0-.08.95-.22,1.6-.15,0,.29-1,.68c-.44.29-.67.47-.67.53l0,.34.15.1v.05l.37,0a2,2,0,0,0,1.57-.72,1.8,1.8,0,0,0,.48-.81l0-.25,0-.65a1.08,1.08,0,0,0-.63-.59l-1.7.09a5.76,5.76,0,0,0-1.95.43m10.18.82,1.25,1a1.09,1.09,0,0,1,.45.93,2.25,2.25,0,0,1-.27.89l-.31.7h-1.17a4.45,4.45,0,0,1-2.95-.87q-.78-.63-.78-1.08a1.33,1.33,0,0,1,.41-1,4.58,4.58,0,0,1,2.47-.77l.12-.43-.14-.22-.31-.22c-1.54-.06-2.56.24-3.09.92a1.8,1.8,0,0,0-.31.7,3.33,3.33,0,0,0-.12.95q0,3.11,5.32,3.1a1.83,1.83,0,0,0,1.71-1,3.23,3.23,0,0,0,.39-1.59,3.42,3.42,0,0,0-.29-1.5,1.74,1.74,0,0,0-1.73-1l-.45,0-.2,0v.45m4.58-.45v-.09c.43-.15.95-.32,1.59-.5q.63-.21.63-.6l0-.3-.05-.06a8.49,8.49,0,0,0-2.64.41c-.7.27-1.05.64-1.05,1.1a.62.62,0,0,0,.19.42,5.68,5.68,0,0,0,2.75,1.07c2,.41,2.93.89,2.93,1.45,0,.3,0,.4-.08.3l-2.17.45c-1.19.31-1.89.71-2.12,1.2l.05.28.19.17.41.06a6.27,6.27,0,0,0,3.39-.88c.84-.54,1.26-1.11,1.26-1.7s-.4-1.09-1.21-1.53l-.47-.22a17.36,17.36,0,0,0-3.57-1m12.29,15.1-.35-.1-8.19.41q-8,.75-14.68.72h-26.7l-.25-.25v.87a1.38,1.38,0,0,0-.38.2l.05.28.15.17.26.06q1,4,1.69,8.9.5,3.51,1.05,8.95c.3,3,.75,6,1.35,9.1.13.69.27,2.25.41,4.69a18.35,18.35,0,0,0,.44,3.33l-.32.08c-.11,0-.17.17-.17.37l.49.52h.3l.06.18.44-.13v-.05H418l20.33-1.82a59.64,59.64,0,0,0,8.93-1.12l.22.1.1-.2c.26-.11.38-.21.38-.31l0-.29-.05-.05h0a43.58,43.58,0,0,0,2.15-7.35c.73-3.81,1.33-6.61,1.78-8.4.16-.66.52-3.26,1.1-7.78q.94-7.33.95-9.1l0-1-.08-.4.1-.18c0-.19,0-.31-.13-.35m-.32-16.94v.1l-3,.24q-.15-.27-.24,0l-2.78.42a18.19,18.19,0,0,0-2.42.65l.05.46a.48.48,0,0,0,.32.15l.67,0,2.65-.56,1.41-.25v.6l1,4.71.69,2.72,0,0,.25-.05.28,0,.6,0h.05l-.41-1.7-.9-2.81-.87-3.42,2.65-.07.33-.18a.71.71,0,0,0,.12-.45.48.48,0,0,0-.13-.4l-.32-.12m25.45.12a1.23,1.23,0,0,0-.82.5,1,1,0,0,0-.16.57l.63,2.55c.57,1.66,1.25,2.5,2,2.5a.57.57,0,0,0,.44-.15l.13-.29a2.92,2.92,0,0,0-.68-1.05,2.81,2.81,0,0,1-.69-1,37.27,37.27,0,0,1,4.59.85l.81-.11.14-.47a3.09,3.09,0,0,0-1.32-.6l-1.25-.33a6,6,0,0,0,2-.87,1.94,1.94,0,0,0,.13-1l0-1a2.11,2.11,0,0,0-.8-1l-5.18.87m-1.38-.52-.05-.06a26,26,0,0,0-5.45.35,7.88,7.88,0,0,0-2.79.75l.05.26a1.44,1.44,0,0,0,.9.25l1-.2,1.88-.26-.06.53.56,2.92c.48,1.91.95,2.86,1.4,2.86a.51.51,0,0,0,.39-.11l.13-.12-1.78-6.1,3.35-.25.36-.18a.49.49,0,0,0,.12-.34l0-.3m15.46,3.84.09-.24a5.53,5.53,0,0,0-1.19-1.76,12,12,0,0,0-1.56-1.35,23.42,23.42,0,0,0-3.42-2.07l-.07,1.23.19,3.12.2,1.22c.24,1.14.59,1.71,1,1.71.19,0,.31,0,.37-.11l.1-.12v-.85l-.32-1.57h.22l1.81-.56c1.12,1,1.83,1.51,2.15,1.51s.34,0,.4-.16m4.67-5.24-.33-.1-2.07.12a4,4,0,0,0-2.42.55,1.16,1.16,0,0,0-.33.92,1,1,0,0,0,.4.76,3.51,3.51,0,0,0,1.2.62c1.07.36,1.6.73,1.6,1.13l-.27.47-.28.53a.66.66,0,0,0,.13.44l.34.15a1.71,1.71,0,0,0,1-.72,2.92,2.92,0,0,0,.07-.9c0-.52-.11-.84-.34-1a27.76,27.76,0,0,1-2.83-1.51l1-.35,2.85-.27.33-.27a.29.29,0,0,0,.13-.23c0-.2,0-.32-.13-.37m11.22,18H507l-3.41.44-3.65.45h-8.19l-2.4-.15-2.4-.15-6.55-.07-1.91-.05a5.77,5.77,0,0,1-2.49-.47h-10.8l-1,.3a.48.48,0,0,0-.24.47c0,.06.06.15.17.27a16.13,16.13,0,0,0-.3,3c0,.77-.05,2.33-.05,4.67,0,3.21.1,5.89.28,8s.27,4.3.27,6.45A35.67,35.67,0,0,1,464,150a25,25,0,0,0-.36,4.5v.3c0,.2,0,.34.13.4l.15.07.17.07h3l2.58-.2a10.22,10.22,0,0,1,1.95,0l15.6.09,3.54.33,3.75.33h8.88c.31-.23.47-.4.47-.5l-.05-.26a29.69,29.69,0,0,0,1.95-6.72c.69-4.17,1.19-7.12,1.51-8.87s.74-4.92,1.24-9.6l.65-6.66v-.5a6,6,0,0,0-.1-1.42l.1-.2a.39.39,0,0,0-.15-.37l-.31-.1m-4.39-14.63-.06-.58c0-2.06-.16-2.8-.47-2.22a4.74,4.74,0,0,0-.48,2.32l.1.55-3.32.26,0-1.4a7.82,7.82,0,0,0-.26-1.68l-.22.5a6.39,6.39,0,0,0-.37,1.3,13.76,13.76,0,0,0-.05,1.52h0l-.2.3.05.3.18.12c0,.71.09,1.54.2,2.48l.08,0,.44,0,.4-.08.11-.2c0,.17.05.1.05-.22l-.18-1.41-.08-.55,3.38-.24.08.55c.33,1.44.67,2.15,1,2.15l.38-.1,0-.1.07-.15v-.28l-.48-1.58-.22-.8a.65.65,0,0,0,.3-.54c0-.18-.05-.3-.15-.35l-.33-.08v.1h0" transform="translate(-341.61 -96.36)"/><path class="cls-1" d="M509.31,121c.1,0,.15.18.15.36l-.1.2a6.08,6.08,0,0,1,.1,1.42v.17l0,.33-.65,6.67q-.75,7-1.23,9.6c-.32,1.74-.83,4.7-1.52,8.86a29.69,29.69,0,0,1-2,6.72l.05.27c0,.1-.15.26-.46.5h-8.89l-3.75-.34-3.53-.33-15.6-.08a9.74,9.74,0,0,0-2,0l-2.58.2h-3l-.16-.07-.15-.06a.48.48,0,0,1-.14-.4v-.3a24.94,24.94,0,0,1,.37-4.5,36.83,36.83,0,0,0,.37-6.1q0-3.24-.27-6.45t-.28-8c0-2.34,0-3.9.05-4.66a14.58,14.58,0,0,1,.3-3l-.17-.27a.47.47,0,0,1,.23-.46l1-.3h10.8a5.77,5.77,0,0,0,2.48.46l1.92,0,6.55.07,4.8.3h8.18l3.65-.45,3.42-.43H509l.32.1M505,146.58l2-9.07.77-4.46a22.54,22.54,0,0,0,.17-4.47l.18-2.22.18-2.33,0-.17.14-.45a15.39,15.39,0,0,1,.5-1.6l-5.07.47-3.43.47h-8.72l-2.42-.14-2.4-.13-6.33-.1a21.35,21.35,0,0,0-4.43-.47H465.54l-.38.14a3.52,3.52,0,0,1,.12,1.25l-.27,2.16v4.17q0,4.5.28,7.57c.19,2.05.29,4.33.29,6.81,0,3.14,0,5.28-.1,6.44a18.43,18.43,0,0,1-.57,4.08l2.15-.13,1.63-.15a32.2,32.2,0,0,1,3.45,0l15.47.11,7.23.65,8.4.09c.13-1,.66-3.68,1.62-7.9l.15-.62" transform="translate(-341.61 -96.36)"/><path class="cls-4" d="M467.69,121.91h8.49a21.35,21.35,0,0,1,4.43.47l6.33.1,2.4.13,2.42.14h8.72l3.43-.47,5.07-.47a15.39,15.39,0,0,0-.5,1.6l-.14.45,0,.17-.18,2.33-.18,2.22a22.54,22.54,0,0,1-.17,4.47l-.77,4.46-2,9.07-.48-.08-.07.23-.27.07a66.13,66.13,0,0,1-9.81-4.87q-3.13-1.86-10.07-6.43-3.36-2.2-9.2-6.45-7.69-5.63-7.7-6.4a.4.4,0,0,1,.08-.27.71.71,0,0,1,.2-.12v-.35" transform="translate(-341.61 -96.36)"/><path class="cls-3" d="M467.69,121.91v.35a.71.71,0,0,0-.2.12.41.41,0,0,0-.08.27q0,.78,7.7,6.4,5.83,4.24,9.2,6.45,6.93,4.56,10.07,6.43a66.13,66.13,0,0,0,9.81,4.87l.27-.07.07-.23.48.08-.15.62c-1,4.22-1.49,6.85-1.62,7.9l-8.4-.09-7.23-.65-15.47-.11a32.2,32.2,0,0,0-3.45,0l-1.63.15-2.15.13a18.43,18.43,0,0,0,.57-4.08c.06-1.16.1-3.3.1-6.44q0-3.73-.29-6.81t-.28-7.57v-4.17l.27-2.16a3.52,3.52,0,0,0-.12-1.25l.38-.14h2.15" transform="translate(-341.61 -96.36)"/><path class="cls-1" d="M353.31,153.09l-.42.13a76.8,76.8,0,0,1-2.28-13.93q-.84-8.44-.83-15V123l-1.45.2-.4-.05-.06,0-.14-.1a.62.62,0,0,1-.05-.33c0-.29.74-.6,2.2-.93.05-.28.11-.3.2,0l.67-.15a70.28,70.28,0,0,1,10.45-1.09v-.1c6.94,0,10.51,0,10.68.1l13.67.09a.18.18,0,0,1,.12-.12l.31-.07,4.35-.08.39-.07,2.63,0,.35.08c.09,0,.13.16.13.35l-.13.24,0,0-.33.25h-.08l-1.44.05-1.68.13h-3.78l-.05.15-.34,0H372l-.28-.07H361.44L352,122.65l-1.61.22a33.31,33.31,0,0,1,.53,4.25c0,1,0,2.39.15,4.13l.22,4.24c0,1.71.39,4.94,1.06,9.7l1,7.08-.05.82m40-31.35a1.25,1.25,0,0,1,.45-.89,32.29,32.29,0,0,1,1.68,9.4l.18,4.82c.08,1.92.19,3.51.34,4.77V152.6l-.19.09-.28.13-.07,0a.81.81,0,0,1-.38-.2v-.08l0-.07V140.1l-.5-4.86-.42-4.1c-.52-5.13-.78-8.25-.78-9.39h0m-.75,31c0,.58-.78,1.05-2.34,1.42q-1.67.38-6.46,1H372.94l-.3-.08-5.38-.1-1.17-.13-1.18-.15h-11a1.24,1.24,0,0,1-.67,0l0-.5q0-.27.48-.54H365l1.25.14,1.27.15,5.67.18h10.26a34.81,34.81,0,0,0,6.49-1l2.5-.7.05,0,0,.3" transform="translate(-341.61 -96.36)"/><path class="cls-4" d="M393.28,121.07v.68c0,1.14.26,4.26.78,9.39l.42,4.1-.9.08-.14.25c0,.07-.19.1-.43.1q-2.83,0-10.62-2.57l-10-3.5q-1.2-.39-11.67-3.35Q352,123.82,352,123.5l.07,0-.12-.82,9.45-1.28h10.27l.28.07h14l.34,0,.05-.15h3.78l1.68-.13,1.44-.05" transform="translate(-341.61 -96.36)"/><path class="cls-3" d="M395,152.45l-2.45.27,0-.3-.05,0-2.5.7a34.81,34.81,0,0,1-6.49,1H373.18l-5.67-.18-1.27-.15L365,153.6H353.66l-.35-.51.05-.82-1-7.08c-.67-4.76-1-8-1.06-9.7l-.22-4.24c-.1-1.74-.15-3.12-.15-4.13a33.31,33.31,0,0,0-.53-4.25l1.61-.22.12.82-.07,0q0,.31,8.67,2.75,10.47,3,11.67,3.35l10,3.5q7.78,2.57,10.62,2.57c.24,0,.39,0,.43-.1l.14-.25.9-.08.5,4.86v12.35" transform="translate(-341.61 -96.36)"/><path class="cls-1" d="M453.68,122.12l0,1q0,1.77-.95,9.1c-.58,4.52-.95,7.12-1.1,7.78-.46,1.79-1,4.59-1.79,8.41a42.79,42.79,0,0,1-2.15,7.34h0l.05,0,0,.29c0,.1-.13.2-.38.32l-.1.2-.22-.1a61.85,61.85,0,0,1-8.93,1.11l-20.34,1.82h-8.63l0,0-.43.13-.07-.18h-.3l-.48-.52c0-.2.06-.32.17-.36l.31-.09a18.45,18.45,0,0,1-.43-3.33,43.44,43.44,0,0,0-.42-4.68c-.6-3.09-1.05-6.13-1.35-9.1q-.54-5.46-1-8.95c-.47-3.28-1-6.25-1.68-8.9l-.27-.07-.15-.17L403,123a1.67,1.67,0,0,1,.39-.2V122l.25.25.31.44c.4-.14.93-.28,1.59-.44h24.8l14.68-.71,8.18-.42.35.1c.09,0,.14.16.14.35l-.1.18.08.4m-3.27,18.72.27-2.43q.21-4.16.92-8.87c.4-2.74.86-5.24,1.4-7.52l-7.65.52-15.12.71h-24.6l-.08,0-.87.17-.28,0,.06.17a10.85,10.85,0,0,1,.6,2.06l.79,4.74q.94,5.88,1.15,9.21a69.84,69.84,0,0,0,1.38,10.12,39.06,39.06,0,0,1,.88,8.27v.46l8.5-.06,29.17-2.59,1.75-7q1.24-5,1.73-8" transform="translate(-341.61 -96.36)"/><path class="cls-4" d="M406.5,123.26h23.73l15.12-.72L453,122c-.54,2.28-1,4.79-1.4,7.52q-.71,4.71-.92,8.87l-.27,2.43-1.26-.18-.15.26-.25.07a92.67,92.67,0,0,1-9-3q-8.34-3-11.73-4.37l-11.2-4.88q-6.86-3-10.92-4.38v-.19q0-.27.57-.21v-.75" transform="translate(-341.61 -96.36)"/><path class="cls-3" d="M406.5,123.26V124q-.57-.06-.57.21v.19q4.06,1.38,10.92,4.38l11.2,4.88q3.39,1.43,11.73,4.37c5.57,2,8.56,3,9,3l.25-.07.15-.26,1.26.18q-.48,3-1.73,8l-1.75,7-29.17,2.58-8.5.07v-.47a39,39,0,0,0-.88-8.26A69.84,69.84,0,0,1,407,139.67q-.21-3.33-1.15-9.21l-.79-4.74a11.19,11.19,0,0,0-.6-2.07l1.09-.36.08,0h.87" transform="translate(-341.61 -96.36)"/></svg>