<?xml version="1.0" encoding="UTF-8" standalone="no"?>
<svg xmlns:xlink="http://www.w3.org/1999/xlink" height="93.75px" width="88.2px" xmlns="http://www.w3.org/2000/svg">
  <g transform="matrix(1.0, 0.0, 0.0, 1.0, 0.0, 0.0)">
    <path d="M74.4 5.3 L75.4 5.3 Q76.2 5.25 76.75 3.8 77.15 2.6 77.15 1.8 L77.15 1.7 79.3 4.3 82.55 7.85 Q83.75 9.05 85.1 11.25 L85.1 11.3 85.35 11.7 86.4 13.65 82.85 13.65 Q82.85 14.45 82.65 14.7 L82.85 14.7 84.95 14.55 86.8 14.55 86.85 14.5 87.15 15.1 Q86.25 15.7 85.35 16.8 84.55 16.35 82.55 15.8 L81.45 15.55 81.8 14.7 82.0 14.7 81.85 14.6 82.1 13.5 82.15 13.25 83.7 12.55 84.7 11.9 84.65 11.55 82.15 11.85 81.85 12.0 78.15 8.25 Q75.15 5.4 74.4 5.4 L74.4 5.3 M81.0 16.35 L82.45 16.8 84.85 17.4 84.7 17.6 81.65 21.6 80.45 22.85 78.55 24.75 Q75.85 27.65 75.85 28.75 L76.0 29.0 75.75 28.95 Q70.1 32.15 68.15 32.55 67.7 31.85 67.7 31.25 67.7 29.8 69.0 27.7 L69.6 26.8 69.8 27.0 Q72.1 24.55 77.7 20.05 79.9 18.1 81.0 16.35 M75.1 4.35 L74.05 4.4 74.05 4.35 76.3 1.85 Q76.3 3.7 75.1 4.35" fill="#ffffff" fill-rule="evenodd" stroke="none"/>
    <path d="M74.4 5.4 Q75.15 5.4 78.15 8.25 L81.85 12.0 82.15 11.85 84.65 11.55 84.7 11.9 83.7 12.55 82.15 13.25 82.1 13.5 81.85 14.6 82.0 14.7 81.8 14.7 81.45 15.55 82.55 15.8 Q84.55 16.35 85.35 16.8 86.25 15.7 87.15 15.1 L86.85 14.5 86.8 14.55 84.95 14.55 82.85 14.7 82.65 14.7 Q82.85 14.45 82.85 13.65 L86.4 13.65 85.35 11.7 85.1 11.3 85.1 11.25 Q83.75 9.05 82.55 7.85 L79.3 4.3 77.15 1.7 77.15 1.8 Q77.15 2.6 76.75 3.8 76.2 5.25 75.4 5.3 L74.4 5.3 73.55 5.3 Q73.1 5.15 73.1 4.65 L75.15 1.25 Q76.65 -0.8 77.05 0.5 78.35 1.25 79.75 2.95 L82.85 6.75 Q84.4 8.4 85.75 10.35 87.25 12.6 87.7 14.1 L87.7 15.25 87.7 15.35 Q87.55 17.15 82.9 22.25 77.55 27.8 76.3 29.3 L76.3 29.35 74.0 31.4 74.35 31.8 86.2 44.95 87.15 45.4 87.15 60.2 Q88.2 63.5 88.2 68.25 L88.15 69.1 87.9 69.65 87.3 69.9 Q85.9 66.55 85.55 61.4 85.4 59.35 85.4 53.0 84.65 50.3 84.45 48.05 84.35 46.6 84.6 45.8 L83.9 45.35 Q86.1 43.55 83.4 44.45 L82.95 44.6 Q79.7 41.8 73.9 34.9 L71.85 32.45 69.25 33.45 67.9 33.45 66.9 32.3 66.8 31.25 Q66.8 30.1 67.85 27.6 L67.9 27.55 Q64.65 23.45 64.65 22.9 64.65 21.95 68.75 26.0 69.3 25.2 69.85 25.25 L70.85 24.2 74.35 21.6 Q79.65 17.55 81.25 12.55 L74.15 5.65 Q74.15 5.35 74.4 5.4 M81.0 16.35 Q79.9 18.1 77.7 20.05 72.1 24.55 69.8 27.0 L69.6 26.8 69.0 27.7 Q67.7 29.8 67.7 31.25 67.7 31.85 68.15 32.55 70.1 32.15 75.75 28.95 L76.0 29.0 75.85 28.75 Q75.85 27.65 78.55 24.75 L80.45 22.85 81.65 21.6 84.7 17.6 84.85 17.4 82.45 16.8 81.0 16.35 M86.4 70.4 L86.45 70.45 86.8 71.15 86.95 71.1 87.05 71.25 87.15 71.85 87.15 71.95 86.85 72.4 86.25 72.65 Q83.35 74.15 71.15 77.3 54.35 81.4 52.7 82.0 45.25 84.75 35.15 88.1 23.15 92.1 21.55 92.1 L20.8 92.05 20.7 91.95 20.45 91.8 20.4 91.2 Q20.4 90.4 48.2 82.0 74.0 74.2 85.4 71.5 L73.85 53.2 73.3 52.3 74.8 51.35 Q82.35 62.15 86.4 70.4 M18.8 92.65 L18.85 92.7 19.0 93.05 18.9 93.5 Q18.75 93.75 18.2 93.75 16.6 93.75 8.15 74.25 L0.0 54.6 0.0 54.15 0.05 54.05 0.05 53.75 0.2 53.9 2.25 52.7 2.35 52.65 2.4 52.65 Q9.5 49.35 37.8 40.15 L59.65 33.15 Q59.95 30.6 61.3 26.65 62.1 24.25 62.8 22.95 58.35 24.85 41.0 29.75 19.1 35.9 14.7 36.25 L13.75 36.6 12.95 35.5 13.05 34.65 Q13.65 34.5 14.75 34.65 18.95 33.2 35.9 28.6 58.1 22.55 64.0 21.45 L64.15 21.4 64.25 21.5 64.3 22.0 64.3 22.05 64.3 22.4 64.3 22.85 63.1 28.45 61.9 32.65 61.9 32.75 61.95 33.0 62.05 33.25 62.15 33.5 62.2 33.6 61.4 33.85 61.25 34.25 61.45 34.4 Q63.7 36.05 71.25 46.4 L72.7 48.4 71.1 49.05 66.0 41.95 60.95 35.0 60.85 34.9 60.45 35.55 60.4 35.55 59.75 35.25 59.6 34.8 59.55 34.45 56.2 35.55 Q24.6 45.95 1.2 55.1 3.35 57.85 5.3 62.65 L9.25 72.9 Q11.5 76.6 14.35 82.95 L18.8 92.6 18.8 92.65 M2.25 52.35 L1.5 52.55 0.85 51.55 0.7 50.95 Q0.7 47.65 5.6 40.5 10.6 33.3 13.5 32.6 L13.8 32.7 13.9 33.25 12.95 34.45 12.9 34.5 8.95 39.45 Q3.65 46.25 2.25 52.35 M75.1 4.35 Q76.3 3.7 76.3 1.85 L74.05 4.35 74.05 4.4 75.1 4.35 M54.75 64.1 L55.0 64.35 55.0 64.65 Q55.0 70.75 49.6 74.0 45.45 76.5 40.25 76.5 37.6 76.5 34.3 75.35 L30.7 73.85 26.3 72.45 Q24.05 71.6 23.6 70.8 22.05 68.2 21.45 66.45 20.8 64.5 20.8 62.2 20.8 59.9 21.3 58.8 21.95 57.5 24.2 55.5 24.7 55.05 26.35 54.4 28.15 53.65 28.9 53.15 L30.4 52.35 30.4 52.4 30.4 52.55 30.5 52.5 31.15 52.5 31.3 52.6 31.4 52.75 32.0 52.25 32.35 52.8 32.0 53.8 32.0 53.85 31.95 53.9 31.55 55.05 Q31.55 55.4 31.85 55.95 L33.4 55.95 35.05 55.05 35.15 55.05 35.2 55.0 35.25 55.0 35.3 54.95 35.75 54.65 36.3 55.5 36.3 55.55 36.7 56.8 Q37.1 58.35 38.15 59.1 40.45 58.6 41.1 57.45 L41.1 57.4 Q41.35 56.9 41.15 57.45 L41.15 57.5 40.9 58.1 41.2 57.5 41.25 57.5 42.45 55.05 Q42.85 55.05 43.1 55.6 43.4 56.15 43.85 56.15 44.95 56.15 45.45 54.5 45.85 53.1 45.5 52.1 L45.5 51.2 46.0 51.05 46.45 51.2 46.95 51.35 48.15 50.6 47.9 50.45 47.85 50.45 47.85 50.2 47.85 49.95 47.85 49.8 48.75 50.15 49.35 50.45 Q50.95 51.1 52.35 52.0 55.65 54.05 55.7 55.75 L55.0 56.2 53.45 54.65 Q51.55 52.9 49.25 51.35 L48.95 51.65 46.55 52.35 46.35 54.75 Q45.8 57.05 43.95 57.05 L43.15 56.95 Q42.9 56.7 42.65 56.6 L41.95 57.75 41.9 57.8 41.45 58.45 Q40.65 59.65 39.25 59.9 L37.85 59.9 Q36.7 59.35 36.15 58.35 35.8 57.6 35.6 56.25 35.75 56.1 35.35 56.1 35.2 56.1 33.5 56.85 L31.45 56.85 30.7 55.85 30.65 55.0 Q30.65 54.3 30.95 53.6 L31.0 53.45 30.85 53.4 Q26.15 55.55 24.65 56.6 21.65 58.85 21.65 62.35 21.65 66.7 24.4 70.5 24.95 71.15 27.9 72.15 L31.55 73.35 35.3 74.6 38.75 75.6 Q48.35 75.6 51.7 70.75 53.35 68.4 54.2 64.85 53.85 64.8 54.75 64.1 M30.8 53.3 L31.05 53.4 31.1 53.3 30.8 53.3 M63.9 61.25 Q64.75 62.3 64.75 63.75 64.75 64.25 63.45 65.1 62.55 65.65 62.05 65.8 L62.45 66.0 62.0 65.8 61.7 65.85 61.1 65.45 59.85 63.9 Q59.0 62.75 57.5 62.15 56.4 61.65 54.95 61.5 L54.5 60.75 Q54.5 59.55 55.2 59.0 L55.25 59.0 Q55.95 58.4 57.35 58.4 59.05 58.45 60.8 59.15 L61.6 59.5 Q63.15 60.3 63.9 61.25 M63.95 63.75 Q63.5 61.4 60.75 60.05 L59.8 59.6 Q56.2 58.2 55.45 60.6 57.15 60.6 58.6 61.45 L60.2 62.65 61.75 64.65 63.95 63.75" fill="#000000" fill-rule="evenodd" stroke="none"/>
    <path d="M64.65 22.9 Q64.65 23.45 67.9 27.55 L67.85 27.6 Q66.8 30.1 66.8 31.25 L66.9 32.3 67.9 33.45 69.25 33.45 71.85 32.45 73.9 34.9 Q79.7 41.8 82.95 44.6 L83.9 45.35 84.6 45.8 Q84.35 46.6 84.45 48.05 84.65 50.3 85.4 53.0 85.4 59.35 85.55 61.4 85.9 66.55 87.3 69.9 L86.4 70.4 Q82.35 62.15 74.8 51.35 L72.7 48.4 71.25 46.4 Q63.7 36.05 61.45 34.4 L61.25 34.25 61.4 33.85 62.2 33.6 62.15 33.5 62.05 33.25 61.95 33.0 61.9 32.75 61.9 32.65 63.1 28.45 64.3 22.85 64.65 22.9 M20.45 91.8 L18.8 92.65 18.8 92.6 14.35 82.95 Q11.5 76.6 9.25 72.9 L5.3 62.65 Q3.35 57.85 1.2 55.1 24.6 45.95 56.2 35.55 L59.6 34.8 59.75 35.25 60.4 35.55 60.45 35.55 60.95 35.0 66.0 41.95 71.1 49.05 73.3 52.3 73.85 53.2 85.4 71.5 Q74.0 74.2 48.2 82.0 20.4 90.4 20.4 91.2 L20.45 91.8 M2.35 52.65 L2.25 52.35 Q3.65 46.25 8.95 39.45 L12.9 34.5 13.05 34.65 12.95 35.5 13.75 36.6 14.7 36.25 Q19.1 35.9 41.0 29.75 58.35 24.85 62.8 22.95 62.1 24.25 61.3 26.65 59.95 30.6 59.65 33.15 L37.8 40.15 Q9.5 49.35 2.4 52.65 L2.35 52.65 M55.7 55.75 Q55.65 54.05 52.35 52.0 50.95 51.1 49.35 50.45 L48.75 50.15 47.85 49.8 47.85 49.95 47.85 50.2 47.85 50.45 47.9 50.45 48.15 50.6 46.95 51.35 46.45 51.2 46.0 51.05 45.5 51.2 45.5 52.1 Q45.85 53.1 45.45 54.5 44.95 56.15 43.85 56.15 43.4 56.15 43.1 55.6 42.85 55.05 42.45 55.05 L41.25 57.5 41.2 57.5 40.9 58.1 41.15 57.5 41.15 57.45 Q41.35 56.9 41.1 57.4 L41.1 57.45 Q40.45 58.6 38.15 59.1 37.1 58.35 36.7 56.8 L36.3 55.55 36.3 55.5 35.75 54.65 35.3 54.95 35.25 55.0 35.2 55.0 35.15 55.05 35.05 55.05 33.4 55.95 31.85 55.95 Q31.55 55.4 31.55 55.05 L31.95 53.9 32.0 53.85 32.0 53.8 32.35 52.8 32.0 52.25 31.4 52.75 31.3 52.6 31.15 52.5 30.5 52.5 30.4 52.55 30.4 52.4 30.4 52.35 28.9 53.15 Q28.15 53.65 26.35 54.4 24.7 55.05 24.2 55.5 21.95 57.5 21.3 58.8 20.8 59.9 20.8 62.2 20.8 64.5 21.45 66.45 22.05 68.2 23.6 70.8 24.05 71.6 26.3 72.45 L30.7 73.85 34.3 75.35 Q37.6 76.5 40.25 76.5 45.45 76.5 49.6 74.0 55.0 70.75 55.0 64.65 L55.0 64.35 54.75 64.1 54.65 64.05 54.55 64.05 53.2 62.75 52.75 62.15 52.75 62.1 52.7 62.1 Q52.25 61.35 52.25 60.85 52.25 60.0 53.25 58.85 L54.05 57.95 54.1 57.9 55.4 56.55 55.7 56.3 55.7 55.75 M34.75 54.1 L34.9 54.45 34.95 54.5 35.0 54.6 35.0 54.5 34.95 54.4 34.95 54.35 34.9 54.25 34.8 54.15 34.8 54.1 34.75 54.1 M34.7 53.9 L34.65 53.8 34.7 54.0 34.7 53.9 M63.9 61.25 Q63.15 60.3 61.6 59.5 L60.8 59.15 Q59.05 58.45 57.35 58.4 55.95 58.4 55.25 59.0 L55.2 59.0 Q54.5 59.55 54.5 60.75 L54.95 61.5 Q56.4 61.65 57.5 62.15 59.0 62.75 59.85 63.9 L61.1 65.45 61.7 65.85 62.0 65.8 62.45 66.0 62.05 65.8 Q62.55 65.65 63.45 65.1 64.75 64.25 64.75 63.75 64.75 62.3 63.9 61.25" fill="#00ff00" fill-rule="evenodd" stroke="none"/>
    <path d="M82.95 44.6 L83.4 44.45 Q86.1 43.55 83.9 45.35 L82.95 44.6 M74.8 51.35 L73.3 52.3 71.1 49.05 72.7 48.4 74.8 51.35 M55.7 55.75 L55.7 56.3 55.4 56.55 54.1 57.9 54.05 57.95 53.25 58.85 Q52.25 60.0 52.25 60.85 52.25 61.35 52.7 62.1 L52.75 62.1 52.75 62.15 53.2 62.75 54.55 64.05 54.65 64.05 54.75 64.1 Q53.85 64.8 54.2 64.85 53.35 68.4 51.7 70.75 48.35 75.6 38.75 75.6 L35.3 74.6 31.55 73.35 27.9 72.15 Q24.95 71.15 24.4 70.5 21.65 66.7 21.65 62.35 21.65 58.85 24.65 56.6 26.15 55.55 30.85 53.4 L31.0 53.45 30.95 53.6 Q30.65 54.3 30.65 55.0 L30.7 55.85 31.45 56.85 33.5 56.85 Q35.2 56.1 35.35 56.1 35.75 56.1 35.6 56.25 35.8 57.6 36.15 58.35 36.7 59.35 37.85 59.9 L39.25 59.9 Q40.65 59.65 41.45 58.45 L41.9 57.8 41.95 57.75 42.65 56.6 Q42.9 56.7 43.15 56.95 L43.95 57.05 Q45.8 57.05 46.35 54.75 L46.55 52.35 48.95 51.65 49.25 51.35 Q51.55 52.9 53.45 54.65 L55.0 56.2 55.7 55.75 M63.95 63.75 L61.75 64.65 60.2 62.65 58.6 61.45 Q57.15 60.6 55.45 60.6 56.2 58.2 59.8 59.6 L60.75 60.05 Q63.5 61.4 63.95 63.75" fill="#ff0000" fill-rule="evenodd" stroke="none"/>
  </g>
</svg>
