<?xml version="1.0" encoding="UTF-8" standalone="no"?>
<svg xmlns:xlink="http://www.w3.org/1999/xlink" height="84.25px" width="99.75px" xmlns="http://www.w3.org/2000/svg">
  <g transform="matrix(1.0, 0.0, 0.0, 1.0, 0.0, 0.0)">
    <path d="M85.5 46.4 Q85.5 49.95 83.15 52.45 L81.3 54.0 Q89.2 54.8 94.45 58.95 99.75 63.2 99.75 67.55 99.75 72.95 86.65 76.65 81.1 78.25 53.3 83.6 L37.7 83.75 33.65 84.1 29.25 84.25 Q22.7 84.25 18.15 83.15 15.65 82.8 11.3 80.9 5.9 78.6 4.15 76.75 1.75 74.2 0.8 72.05 0.0 70.15 0.0 67.65 0.0 62.35 5.8 59.25 11.45 56.3 23.9 54.6 19.4 53.4 17.0 49.1 15.0 45.5 15.0 41.85 15.0 38.1 15.15 37.4 15.65 34.6 18.15 33.0 21.8 30.6 23.7 29.6 25.35 28.75 26.95 28.25 L26.85 28.05 27.85 27.85 Q32.75 16.2 36.85 11.5 L38.85 9.0 Q39.7 8.05 41.05 7.55 43.3 6.75 57.2 5.1 63.7 4.4 70.0 2.15 75.85 0.05 76.8 0.0 L76.9 0.3 76.95 1.05 Q76.95 1.9 69.45 8.95 61.95 15.95 61.95 18.95 61.95 20.3 63.85 22.9 65.7 25.5 65.7 27.35 65.7 30.05 64.85 32.45 64.2 34.2 63.2 35.55 L66.25 35.45 Q79.4 37.65 82.95 40.05 85.5 41.8 85.5 46.4 M98.1 67.55 Q98.1 63.75 92.55 59.75 86.2 55.15 77.2 55.55 L72.5 56.0 Q71.3 56.0 70.9 55.6 70.8 55.95 70.8 55.05 70.8 54.85 71.55 54.55 71.55 54.2 71.8 54.1 L72.35 54.0 73.1 53.95 77.3 52.65 Q83.75 50.2 83.75 46.45 83.75 42.3 80.95 40.6 76.3 37.85 61.45 37.3 L60.9 37.05 Q60.65 36.9 60.65 36.35 L60.65 36.2 Q60.7 35.8 60.9 35.65 L60.95 35.65 62.35 32.85 Q64.0 29.45 64.0 27.45 64.0 26.55 62.15 23.45 60.3 20.4 60.3 19.0 60.3 15.15 64.5 11.05 L72.8 3.5 72.8 3.25 53.7 7.1 Q39.05 10.35 37.05 14.65 35.9 17.15 34.2 22.25 L33.55 23.65 35.0 26.35 Q38.35 30.85 45.8 31.8 L46.4 31.95 46.65 32.65 Q46.65 33.2 46.35 33.4 L45.8 33.5 43.5 33.5 Q37.95 31.8 34.55 28.85 32.9 27.45 32.05 26.0 30.8 27.65 29.2 28.95 L29.05 29.35 28.55 29.45 28.45 29.5 28.35 29.5 28.05 29.5 25.6 30.95 Q21.45 33.05 20.15 33.95 17.25 35.95 16.8 37.8 L16.7 41.8 Q16.7 44.75 16.85 45.2 17.15 46.3 19.05 48.85 19.6 49.6 23.0 51.25 L28.6 54.15 28.45 54.7 28.25 54.9 27.6 55.05 27.45 55.05 Q26.75 55.65 23.55 56.45 L14.65 58.6 Q7.75 60.5 4.55 62.95 L4.5 63.15 4.2 63.4 3.95 63.65 3.7 63.9 3.45 64.15 3.3 64.4 2.95 64.65 2.7 64.9 2.45 65.15 2.45 65.2 Q1.7 66.35 1.7 67.65 1.7 72.55 6.4 75.9 L6.5 75.9 7.05 76.0 7.45 76.05 7.8 76.15 8.3 76.3 8.8 76.5 9.25 76.55 9.75 76.65 11.85 76.65 13.05 76.85 13.05 76.9 13.15 77.15 13.35 77.45 13.5 77.7 13.65 77.95 13.9 78.2 14.25 78.45 14.8 78.7 15.3 78.85 15.15 78.85 13.8 78.8 14.6 79.45 15.6 79.95 17.25 80.5 19.0 81.2 Q23.3 82.4 29.2 82.4 L33.4 82.2 37.3 81.9 52.75 81.7 Q64.25 81.5 81.3 76.05 98.1 70.7 98.1 67.55" fill="#000000" fill-rule="evenodd" stroke="none"/>
    <path d="M98.1 67.55 Q98.1 70.7 81.3 76.05 64.25 81.5 52.75 81.7 L37.3 81.9 33.4 82.2 29.2 82.4 Q23.3 82.4 19.0 81.2 L17.25 80.5 15.6 79.95 14.6 79.45 13.8 78.8 15.15 78.85 15.3 78.85 14.8 78.7 14.25 78.45 13.9 78.2 13.65 77.95 13.5 77.7 13.35 77.45 13.15 77.15 13.05 76.9 13.05 76.85 11.85 76.65 9.75 76.65 9.25 76.55 8.8 76.5 8.3 76.3 7.8 76.15 7.45 76.05 7.05 76.0 6.5 75.9 6.4 75.9 Q1.7 72.55 1.7 67.65 1.7 66.35 2.45 65.2 L2.45 65.15 2.7 64.9 2.95 64.65 3.3 64.4 3.45 64.15 3.7 63.9 3.95 63.65 4.2 63.4 4.5 63.15 4.55 62.95 Q7.75 60.5 14.65 58.6 L23.55 56.45 Q26.75 55.65 27.45 55.05 L27.6 55.05 28.25 54.9 28.45 54.7 28.6 54.15 23.0 51.25 Q19.6 49.6 19.05 48.85 17.15 46.3 16.85 45.2 16.7 44.75 16.7 41.8 L16.8 37.8 Q17.25 35.95 20.15 33.95 21.45 33.05 25.6 30.95 L28.05 29.5 28.35 29.5 28.45 29.5 28.55 29.45 29.05 29.35 29.2 28.95 Q30.8 27.65 32.05 26.0 32.9 27.45 34.55 28.85 37.95 31.8 43.5 33.5 L45.8 33.5 46.35 33.4 Q46.65 33.2 46.65 32.65 L46.4 31.95 45.8 31.8 Q38.35 30.85 35.0 26.35 L33.55 23.65 34.2 22.25 Q35.9 17.15 37.05 14.65 39.05 10.35 53.7 7.1 L72.8 3.25 72.8 3.5 64.5 11.05 Q60.3 15.15 60.3 19.0 60.3 20.4 62.15 23.45 64.0 26.55 64.0 27.45 64.0 29.45 62.35 32.85 L60.95 35.65 60.9 35.65 Q60.7 35.8 60.65 36.2 L60.65 36.35 Q60.65 36.9 60.9 37.05 L61.45 37.3 Q76.3 37.85 80.95 40.6 83.75 42.3 83.75 46.45 83.75 50.2 77.3 52.65 L73.1 53.95 72.35 54.0 71.8 54.1 Q71.55 54.2 71.55 54.55 70.8 54.85 70.8 55.05 70.8 55.95 70.9 55.6 71.3 56.0 72.5 56.0 L77.2 55.55 Q86.2 55.15 92.55 59.75 98.1 63.75 98.1 67.55" fill="#663300" fill-rule="evenodd" stroke="none"/>
  </g>
</svg>
