<?xml version="1.0" encoding="UTF-8" standalone="no"?>
<svg xmlns:xlink="http://www.w3.org/1999/xlink" height="115.9px" width="152.05px" xmlns="http://www.w3.org/2000/svg">
  <g transform="matrix(1.0, 0.0, 0.0, 1.0, 0.0, 0.0)">
    <path d="M152.0 3.25 L152.05 6.4 Q152.05 11.7 149.2 33.7 146.6 54.05 145.9 57.05 143.85 65.1 140.55 82.25 137.7 95.6 134.1 104.3 L134.2 104.3 134.35 104.45 134.45 105.3 Q134.45 105.75 133.3 106.25 L133.0 106.85 132.35 106.55 Q126.65 108.2 105.55 109.9 L44.55 115.35 18.65 115.35 18.6 115.5 17.3 115.9 17.1 115.35 16.2 115.35 14.75 113.8 Q14.75 112.9 15.25 112.7 L16.2 112.45 Q15.2 108.4 14.9 102.45 14.25 91.5 13.65 88.4 10.95 74.5 9.6 61.1 7.95 44.75 6.45 34.25 4.3 19.5 1.4 7.55 L0.6 7.35 0.15 6.85 0.0 6.0 Q0.3 5.75 1.15 5.4 L1.15 2.8 1.9 3.55 2.85 4.85 Q4.65 4.25 7.6 3.55 L82.0 3.55 126.05 1.4 150.6 0.15 151.65 0.45 Q152.05 0.65 152.05 1.5 L151.75 2.05 152.0 3.25 M142.2 59.4 L143.0 52.1 Q143.65 39.65 145.75 25.5 147.55 13.2 149.95 2.95 L127.0 4.5 81.65 6.65 10.45 6.65 7.85 6.65 7.6 6.75 5.0 7.25 4.15 7.35 4.35 7.85 Q5.4 10.45 6.15 14.05 L8.5 28.25 Q11.35 45.9 11.95 55.9 12.95 71.45 16.1 86.25 18.75 98.55 18.75 111.05 L18.75 112.45 44.25 112.25 131.75 104.5 137.0 83.45 Q140.75 68.45 142.2 59.4" fill="#000000" fill-rule="evenodd" stroke="none"/>
    <path d="M10.45 6.65 L81.65 6.65 127.0 4.5 149.95 2.95 Q147.55 13.2 145.75 25.5 143.65 39.65 143.0 52.1 L142.2 59.4 138.4 58.85 137.95 59.65 137.2 59.85 Q135.35 59.85 110.3 51.0 85.3 42.15 75.1 37.9 L41.5 23.25 Q20.95 14.25 8.75 10.1 L8.75 9.55 Q8.75 8.75 10.45 8.9 L10.45 6.65" fill="#202020" fill-rule="evenodd" stroke="none"/>
    <path d="M10.45 6.65 L10.45 8.9 Q8.75 8.75 8.75 9.55 L8.75 10.1 Q20.95 14.25 41.5 23.25 L75.1 37.9 Q85.3 42.15 110.3 51.0 135.35 59.85 137.2 59.85 L137.95 59.65 138.4 58.85 142.2 59.4 Q140.75 68.45 137.0 83.45 L131.75 104.5 44.25 112.25 18.75 112.45 18.75 111.05 Q18.75 98.55 16.1 86.25 12.95 71.45 11.95 55.9 11.35 45.9 8.5 28.25 L6.15 14.05 Q5.4 10.45 4.35 7.85 L7.6 6.75 7.85 6.65 10.45 6.65" fill="#333333" fill-rule="evenodd" stroke="none"/>
  </g>
</svg>
