<?xml version="1.0" encoding="UTF-8" standalone="no"?>
<svg xmlns:xlink="http://www.w3.org/1999/xlink" height="57.2px" width="144.35px" xmlns="http://www.w3.org/2000/svg">
  <g transform="matrix(1.0, 0.0, 0.0, 1.0, 0.0, 0.0)">
    <path d="M85.4 31.9 Q85.15 31.6 85.15 31.15 92.1 30.85 109.45 33.2 123.05 35.05 127.4 36.4 127.65 33.3 130.0 31.1 132.45 28.85 135.85 28.65 139.35 28.4 141.7 30.55 144.35 32.95 144.35 37.55 144.35 40.0 144.15 40.75 143.5 42.9 141.2 41.7 142.0 44.55 142.0 46.7 142.0 50.6 141.3 52.5 139.6 57.2 134.15 57.2 129.4 57.2 129.4 53.5 129.4 52.5 129.9 51.45 L130.85 48.75 Q122.2 48.2 118.5 47.1 L111.55 44.95 105.75 44.15 87.85 43.05 84.7 42.8 83.5 42.35 83.45 42.55 Q82.75 44.6 80.5 44.6 79.7 44.6 78.45 43.8 L76.95 42.95 Q76.95 47.3 73.9 47.3 L67.95 47.15 Q63.6 46.8 61.05 45.55 L60.95 45.0 61.75 44.4 Q62.7 43.9 64.5 43.9 L69.2 44.7 74.15 45.45 74.7 42.5 Q75.3 40.5 76.45 40.5 76.85 40.5 78.6 41.6 L80.55 42.7 81.2 42.1 81.35 41.6 81.75 39.45 Q82.2 35.8 84.6 34.7 80.75 30.85 80.75 30.2 80.75 29.15 81.9 28.55 L86.05 26.85 86.25 26.65 Q82.65 26.95 77.6 23.5 L75.65 22.05 75.6 22.65 75.6 23.2 Q75.3 26.9 71.3 31.4 67.15 36.1 64.3 36.1 62.5 36.1 61.15 31.95 59.85 27.75 59.2 27.75 57.9 27.75 56.05 28.7 54.2 29.65 52.95 29.65 50.7 29.65 49.4 26.5 48.35 24.15 48.35 21.85 L46.1 22.2 44.3 22.45 43.0 22.3 42.95 21.0 Q42.95 17.95 45.3 14.1 L47.65 10.05 Q47.65 7.55 43.5 5.15 39.25 2.75 33.05 1.85 L19.35 1.85 Q10.0 1.8 5.15 8.65 4.05 10.2 3.3 11.75 1.7 15.05 1.7 18.45 1.7 23.1 3.3 27.05 8.65 40.2 32.0 45.45 L44.25 45.45 49.95 44.95 60.1 44.95 60.7 45.05 60.95 45.55 60.95 45.75 60.65 46.5 60.1 46.65 50.3 46.8 47.4 47.05 44.45 47.3 32.2 47.3 Q13.9 42.95 6.2 35.0 4.5 33.25 3.3 31.3 0.0 25.9 0.0 18.75 0.0 13.3 2.8 8.65 L3.45 7.65 Q8.55 0.2 19.25 0.15 L19.25 0.0 33.2 0.0 Q41.85 1.05 45.95 4.05 49.4 6.55 49.4 10.05 49.4 11.25 47.25 15.4 45.0 19.6 44.95 20.25 L44.95 20.4 47.85 20.1 Q49.45 20.1 51.05 23.95 52.65 27.75 53.0 27.75 53.55 27.75 55.6 26.8 57.65 25.85 59.6 25.85 61.4 25.85 62.55 28.95 L63.7 33.7 63.75 33.9 64.45 34.05 71.5 28.75 Q72.2 28.15 73.05 25.95 73.9 23.75 73.9 22.65 73.9 21.65 73.4 20.75 72.95 20.05 72.9 18.45 L72.85 18.2 72.85 18.15 72.85 17.55 72.95 17.5 72.95 17.2 73.05 17.25 73.05 17.2 73.75 17.05 Q74.85 17.05 75.3 18.7 L75.55 19.0 77.35 21.3 Q80.25 24.2 90.05 25.2 L90.65 25.4 90.9 26.15 Q90.9 27.45 82.75 30.1 82.9 30.65 84.95 32.4 L85.2 32.6 Q87.5 34.45 87.5 34.9 87.5 35.55 85.2 36.25 83.5 36.8 83.5 38.6 L83.6 39.55 83.7 40.15 Q93.55 40.2 106.0 42.05 L114.55 43.5 131.95 47.0 132.6 47.55 132.8 48.45 131.15 53.4 Q131.15 54.15 131.9 54.7 132.75 55.3 134.3 55.3 138.2 55.3 139.65 51.25 140.3 49.3 140.3 46.6 140.3 45.65 139.1 43.05 L137.9 40.5 Q137.9 39.9 138.2 39.75 L142.6 39.65 142.7 37.75 Q142.7 35.85 141.35 33.55 139.5 30.45 136.35 30.45 133.25 30.45 131.1 33.4 129.4 35.75 129.4 37.7 L129.15 37.9 128.35 38.1 128.05 38.1 127.85 38.1 115.6 37.05 107.05 35.8 103.85 35.3 86.0 32.35 85.4 31.9" fill="#000000" fill-rule="evenodd" stroke="none"/>
    <path d="M84.95 32.4 L85.4 31.9 86.0 32.35 103.85 35.3 107.05 35.8 115.6 37.05 127.85 38.1 128.05 38.1 128.35 38.1 129.15 37.9 129.4 37.7 Q129.4 35.75 131.1 33.4 133.25 30.45 136.35 30.45 139.5 30.45 141.35 33.55 142.7 35.85 142.7 37.75 L142.6 39.65 138.2 39.75 Q137.9 39.9 137.9 40.5 L139.1 43.05 Q140.3 45.65 140.3 46.6 140.3 49.3 139.65 51.25 138.2 55.3 134.3 55.3 132.75 55.3 131.9 54.7 131.15 54.15 131.15 53.4 L132.8 48.45 132.6 47.55 131.95 47.0 114.55 43.5 106.0 42.05 Q93.55 40.2 83.7 40.15 L83.6 39.55 83.5 38.6 Q83.5 36.8 85.2 36.25 87.5 35.55 87.5 34.9 87.5 34.45 85.2 32.6 L84.95 32.4" fill="#f7fbc8" fill-rule="evenodd" stroke="none"/>
    <path d="M61.05 45.55 L60.95 45.55 60.7 45.05 60.1 44.95 49.95 44.95 44.25 45.45 32.0 45.45 Q8.65 40.2 3.3 27.05 1.7 23.1 1.7 18.45 1.7 15.05 3.3 11.75 4.05 10.2 5.15 8.65 10.0 1.8 19.35 1.85 L33.05 1.85 Q39.25 2.75 43.5 5.15 47.65 7.55 47.65 10.05 L45.3 14.1 Q42.95 17.95 42.95 21.0 L43.0 22.3 44.3 22.45 46.1 22.2 48.35 21.85 Q48.35 24.15 49.4 26.5 50.7 29.65 52.95 29.65 54.2 29.65 56.05 28.7 57.9 27.75 59.2 27.75 59.85 27.75 61.15 31.95 62.5 36.1 64.3 36.1 67.15 36.1 71.3 31.4 75.3 26.9 75.6 23.2 L75.6 22.65 75.65 22.05 77.6 23.5 Q82.65 26.95 86.25 26.65 L86.05 26.85 81.9 28.55 Q80.75 29.15 80.75 30.2 80.75 30.85 84.6 34.7 82.2 35.8 81.75 39.45 L81.35 41.6 81.2 42.1 80.55 42.7 78.6 41.6 Q76.85 40.5 76.45 40.5 75.3 40.5 74.7 42.5 L74.15 45.45 69.2 44.7 64.5 43.9 Q62.7 43.9 61.75 44.4 L60.95 45.0 61.05 45.55" fill="#b7751c" fill-rule="evenodd" stroke="none"/>
  </g>
</svg>
