<?xml version="1.0" encoding="UTF-8" standalone="no"?>
<svg xmlns:xlink="http://www.w3.org/1999/xlink" height="482.8px" width="644.75px" xmlns="http://www.w3.org/2000/svg">
  <g transform="matrix(1.0, 0.0, 0.0, 1.0, 2.5, 2.5)">
    <path d="M641.75 479.8 L-2.0 479.8 -2.0 -2.0 641.75 -2.0 641.75 479.8" fill="#0000ff" fill-rule="evenodd" stroke="none"/>
    <path d="M641.75 479.8 L-2.0 479.8 -2.0 -2.0 641.75 -2.0 641.75 479.8 Z" fill="none" stroke="#000000" stroke-linecap="round" stroke-linejoin="round" stroke-width="1.0"/>
    <path d="M519.9 48.95 Q520.3 49.15 520.3 50.05 520.3 50.4 519.9 50.75 L518.9 51.55 510.35 52.35 507.45 53.4 515.95 57.95 Q516.95 58.5 516.95 60.85 516.95 63.15 516.75 63.55 516.25 64.7 513.8 65.7 L512.8 65.25 Q512.4 64.85 512.4 63.95 L513.25 62.35 514.05 60.95 Q514.05 59.15 509.25 57.55 506.85 56.75 505.65 55.7 504.45 54.65 504.45 53.4 504.45 51.5 505.45 50.65 507.2 49.1 512.7 49.0 L518.9 48.65 519.9 48.95 M525.1 56.35 Q525.35 54.65 526.2 52.45 L526.85 50.95 Q527.45 52.95 527.65 56.0 L527.7 60.2 537.65 59.4 537.35 57.75 Q537.35 53.35 538.8 50.8 540.2 48.2 540.2 57.45 L540.4 59.2 540.45 59.2 540.45 58.9 541.45 59.15 Q541.9 59.35 541.9 60.2 541.9 61.15 541.0 61.8 L541.65 64.2 543.1 68.95 543.05 69.8 542.85 70.25 542.7 70.55 Q542.4 70.85 541.55 70.85 539.9 70.85 538.45 64.4 L538.2 62.75 528.05 63.45 528.3 65.1 528.85 69.35 Q528.85 70.75 528.7 70.0 L528.35 70.6 527.15 70.85 525.85 70.7 525.6 70.55 Q525.1 66.3 525.0 63.1 L524.45 62.75 524.3 61.85 524.9 60.95 524.95 60.9 Q524.95 57.2 525.1 56.35 M502.6 58.65 Q505.15 61.35 506.15 63.95 L505.9 64.65 Q505.6 65.15 504.7 65.15 503.25 65.15 498.25 60.6 L492.8 62.3 492.15 62.3 Q492.7 65.65 493.1 67.0 L493.1 69.55 492.8 69.9 Q492.55 70.25 491.7 70.25 489.7 70.25 488.6 65.1 L488.0 61.45 487.45 52.1 487.65 48.4 Q493.55 51.35 497.9 54.6 500.65 56.65 502.6 58.65 M490.3 53.6 Q490.95 55.45 491.7 59.65 492.7 58.95 494.9 58.35 L495.6 58.2 490.4 53.05 490.3 53.6 M434.8 57.05 L434.65 56.25 Q435.9 55.2 443.0 54.0 451.4 52.6 459.35 52.95 L459.5 53.15 459.6 54.05 459.25 55.05 Q458.85 55.4 458.15 55.6 L448.1 56.35 453.45 74.65 453.05 75.0 Q452.75 75.35 451.9 75.35 449.85 75.35 447.7 66.75 L446.0 58.0 446.2 56.4 Q442.35 56.6 440.55 57.2 438.65 57.8 437.5 57.8 435.75 57.8 434.8 57.05 M478.55 56.3 L478.2 55.2 Q474.2 55.2 470.35 56.4 465.85 57.8 464.0 58.0 L464.45 59.65 464.75 61.85 464.75 62.15 475.0 60.0 Q478.85 59.0 478.85 57.75 L478.55 56.3 M481.35 60.85 Q480.45 61.85 475.2 63.45 L478.95 64.45 Q482.2 65.4 482.9 66.25 L482.5 67.65 480.05 68.0 Q468.5 65.45 466.3 65.45 466.5 66.5 468.35 68.6 470.2 70.75 470.4 71.75 L470.0 72.6 Q469.6 73.05 468.7 73.05 465.15 73.05 462.6 65.55 L460.7 57.9 Q460.7 56.9 461.2 56.2 461.85 55.1 463.65 54.7 L479.2 52.1 Q481.25 53.7 481.6 54.95 L481.75 57.95 Q481.75 60.4 481.35 60.85 M357.95 55.4 L358.05 56.3 Q358.05 57.45 356.15 58.1 L351.4 59.6 351.4 59.85 Q358.3 61.25 362.1 62.95 L363.5 63.6 Q367.15 65.6 367.15 68.2 367.15 70.85 363.35 73.3 359.1 75.95 353.2 75.95 L351.95 75.75 351.4 75.25 351.25 74.4 Q352.25 72.2 357.6 70.8 L364.1 69.45 Q364.35 69.9 364.35 68.55 364.35 66.05 355.55 64.2 348.95 62.8 347.3 61.0 346.75 60.4 346.75 59.75 346.75 57.65 349.9 56.45 352.8 55.35 357.8 55.2 L357.95 55.4 M362.2 60.05 L362.05 58.65 Q365.75 57.4 369.3 56.7 L377.65 55.45 Q377.9 54.55 378.35 55.35 L387.3 54.65 387.3 54.35 388.25 54.7 Q388.65 55.0 388.65 55.9 388.65 56.8 388.3 57.25 L387.3 57.8 379.35 58.0 381.95 68.25 384.65 76.7 385.9 81.8 385.75 81.8 383.95 81.95 383.1 82.1 382.35 82.25 382.25 82.3 380.2 74.15 377.3 60.0 377.35 58.2 373.1 58.95 365.15 60.65 363.15 60.5 Q362.4 60.35 362.2 60.05 M344.5 71.7 Q342.8 74.8 339.35 74.8 323.4 74.8 323.4 65.5 323.4 63.85 323.75 62.65 324.05 61.4 324.7 60.55 327.05 57.5 333.95 57.8 334.4 57.95 334.9 58.45 L335.3 59.1 334.95 60.4 Q329.55 60.95 327.55 62.7 326.3 63.8 326.3 65.85 326.3 67.2 328.65 69.1 332.0 71.8 337.5 71.7 L341.0 71.7 341.95 69.6 Q342.75 67.9 342.75 66.95 342.75 65.15 341.4 64.15 L337.65 61.2 337.65 59.85 338.25 59.7 339.6 59.55 Q343.4 59.55 344.8 62.45 345.65 64.2 345.65 66.95 345.65 69.6 344.5 71.7 M272.4 60.9 Q276.55 56.45 280.4 58.45 283.75 60.2 283.75 63.7 283.75 67.1 282.05 70.55 279.35 75.95 273.8 75.95 265.8 75.95 263.25 73.4 262.8 72.9 262.55 72.2 262.15 71.2 262.15 69.75 262.15 67.8 262.3 67.0 L262.5 66.4 Q262.8 65.35 263.6 64.0 264.4 62.65 268.3 61.8 L272.4 60.9 M266.15 66.65 Q265.0 68.6 265.0 69.45 265.0 70.5 266.15 71.2 267.35 71.95 270.55 72.8 L276.35 72.8 Q278.2 72.4 279.65 68.7 280.85 65.6 280.85 63.7 280.85 60.05 275.8 61.6 269.9 64.05 268.2 64.25 267.35 64.65 266.15 66.65 M253.9 64.6 L249.15 61.3 Q244.2 58.0 239.6 58.0 236.95 58.0 235.35 61.75 234.55 63.65 234.3 65.65 234.3 70.2 238.7 72.1 243.7 74.25 256.45 74.25 L257.9 74.5 258.05 74.65 258.2 75.55 Q258.2 76.9 256.85 77.5 255.1 78.25 250.55 78.25 231.55 78.25 231.55 65.45 231.55 53.2 241.65 54.85 245.6 55.5 249.6 58.2 253.5 60.8 255.35 63.95 L255.05 64.3 253.9 64.6 M319.95 61.65 Q319.7 62.8 318.5 64.1 316.6 66.25 313.8 66.25 L312.7 66.15 312.65 66.0 312.2 65.7 312.1 64.7 Q312.1 64.4 314.1 63.1 L317.15 61.05 317.05 60.2 312.25 60.65 Q310.05 61.0 309.4 61.3 L309.45 61.55 310.7 64.15 Q314.35 72.55 314.35 76.1 L314.3 77.7 314.05 78.0 312.95 78.25 Q311.8 78.25 309.25 69.45 L308.15 65.15 Q307.2 64.9 306.45 63.05 L306.0 61.75 305.8 60.75 Q305.8 59.4 307.1 58.75 308.65 57.9 312.95 57.45 L318.05 57.2 Q319.6 57.9 319.95 58.95 L320.05 60.9 319.95 61.65 M285.6 63.8 Q285.7 61.9 286.0 61.3 287.45 57.95 293.1 65.15 293.75 64.55 294.95 61.9 296.3 59.55 298.2 59.55 299.45 59.55 300.9 63.55 L301.9 66.6 303.6 73.75 303.4 75.95 303.25 76.25 302.2 76.5 Q300.95 76.5 299.55 71.2 298.5 67.5 297.9 63.45 297.45 63.85 296.05 67.6 294.8 70.85 293.65 70.85 292.65 70.85 290.95 68.0 L288.85 64.25 Q288.25 67.45 288.15 74.95 L286.85 75.35 Q285.9 74.55 285.6 72.2 285.45 71.1 285.45 68.65 285.45 65.6 285.6 63.8 M182.75 63.3 Q182.75 64.35 179.6 65.75 176.0 67.35 171.9 67.35 L171.4 67.35 171.4 68.1 171.9 69.6 172.4 71.1 178.6 70.6 Q181.9 70.35 183.6 70.55 L183.75 70.7 183.85 71.55 Q183.85 72.3 182.75 72.45 180.05 72.95 176.8 74.25 L171.05 74.25 Q169.45 72.7 168.9 69.9 L168.75 69.05 168.55 63.95 Q168.1 61.55 169.25 59.8 171.55 56.3 179.6 57.8 L180.6 58.0 Q181.05 58.25 181.05 59.1 L179.6 60.65 171.4 60.9 171.4 64.5 174.35 63.55 Q178.25 62.5 182.4 62.05 L182.6 62.3 182.75 63.3 M166.4 69.95 L166.8 70.35 166.9 71.0 166.4 71.75 165.45 72.5 156.35 72.5 Q155.3 71.35 155.0 69.5 L154.9 66.45 Q154.5 64.85 154.65 63.55 154.7 62.95 154.9 62.55 155.5 61.0 157.55 60.9 L157.75 69.45 165.45 69.7 166.4 69.95 M121.3 60.5 L121.45 61.4 Q121.45 62.5 118.65 63.25 115.8 64.0 115.8 65.85 115.8 67.4 116.35 67.75 117.85 68.65 124.55 69.15 L125.55 69.4 Q125.95 69.6 125.95 70.45 L124.55 71.95 118.35 71.95 Q114.3 70.95 113.35 69.1 113.0 68.45 113.0 65.85 113.0 62.8 113.5 62.15 115.0 60.25 121.15 60.35 L121.3 60.5 M107.95 59.3 Q107.15 59.3 99.8 61.1 L92.9 62.85 93.55 64.2 Q95.95 62.95 99.9 62.85 L105.3 63.15 105.45 63.35 105.55 64.2 Q105.55 65.05 101.45 65.95 L95.65 66.8 94.45 66.75 Q95.4 69.85 95.4 72.3 L95.4 72.7 95.4 73.15 95.35 73.25 95.15 73.85 94.95 74.05 93.95 74.25 Q93.2 74.25 92.5 73.5 L92.25 73.15 Q91.5 72.15 90.9 70.25 89.7 65.55 89.1 64.15 L89.1 59.85 Q90.1 59.8 91.05 60.5 91.95 59.3 95.75 58.45 L107.0 56.65 107.95 57.35 Q108.35 57.8 108.35 58.0 L107.95 59.3 M109.55 72.2 Q109.55 73.3 108.65 73.5 L105.85 74.25 97.35 74.25 96.25 73.05 95.95 72.65 Q95.95 71.8 96.45 71.6 L97.35 71.4 105.3 71.05 Q107.5 70.95 109.25 71.1 L109.4 71.3 109.55 72.2 M82.6 64.9 Q81.4 66.35 78.05 67.0 86.3 69.95 91.4 73.6 L90.6 75.0 Q90.3 75.35 89.35 75.35 L70.15 68.15 Q71.5 72.7 71.5 75.0 L71.4 78.25 70.1 78.8 Q69.25 77.5 67.55 71.0 65.8 64.35 65.8 62.05 L65.85 61.15 65.8 60.4 65.95 59.85 Q66.1 59.05 66.5 59.2 67.2 58.6 68.55 57.95 71.35 56.55 74.6 56.2 83.4 55.25 83.4 62.3 83.4 63.95 82.6 64.9 M150.25 60.5 L150.4 61.4 Q149.65 61.45 148.2 62.25 145.3 63.75 141.9 67.85 L141.9 71.7 Q144.9 71.85 146.7 72.75 147.85 73.35 148.75 74.5 L148.15 75.65 146.95 75.95 144.55 75.45 140.5 74.8 Q139.45 73.9 139.2 72.45 139.05 71.75 139.05 69.75 139.05 65.15 139.95 63.7 L140.55 63.0 Q143.05 60.3 150.1 60.35 L150.25 60.5 M138.75 61.55 L136.1 63.9 134.5 65.05 134.55 66.2 Q134.45 69.4 135.05 70.25 L135.05 75.8 133.65 76.5 Q132.15 74.95 131.8 71.95 L131.7 67.25 131.7 66.25 Q129.75 66.0 127.4 62.15 L125.4 58.5 Q125.4 53.9 128.1 57.0 129.55 58.7 132.25 62.75 L134.9 60.55 137.85 58.35 Q139.25 58.35 138.9 58.65 L139.4 58.8 Q139.6 58.85 139.6 59.65 139.6 60.5 138.75 61.55 M77.1 59.3 Q74.0 59.3 70.6 61.0 L68.2 62.4 68.65 63.65 69.6 66.4 Q71.1 64.05 74.45 63.5 79.2 62.8 80.1 62.15 L78.75 60.6 Q77.5 59.3 77.1 59.3" fill="#000000" fill-rule="evenodd" stroke="none"/>
    <path d="M490.3 53.6 L490.4 53.05 495.6 58.2 494.9 58.35 Q492.7 58.95 491.7 59.65 490.95 55.45 490.3 53.6 M478.55 56.3 L478.85 57.75 Q478.85 59.0 475.0 60.0 L464.75 62.15 464.75 61.85 464.45 59.65 464.0 58.0 Q465.85 57.8 470.35 56.4 474.2 55.2 478.2 55.2 L478.55 56.3 M266.15 66.65 Q267.35 64.65 268.2 64.25 269.9 64.05 275.8 61.6 280.85 60.05 280.85 63.7 280.85 65.6 279.65 68.7 278.2 72.4 276.35 72.8 L270.55 72.8 Q267.35 71.95 266.15 71.2 265.0 70.5 265.0 69.45 265.0 68.6 266.15 66.65 M77.1 59.3 Q77.5 59.3 78.75 60.6 L80.1 62.15 Q79.2 62.8 74.45 63.5 71.1 64.05 69.6 66.4 L68.65 63.65 68.2 62.4 70.6 61.0 Q74.0 59.3 77.1 59.3" fill="#dddddd" fill-rule="evenodd" stroke="none"/>
    <path d="M207.9 103.1 Q206.6 104.3 206.55 105.75 L206.55 103.75 206.8 103.75 207.8 103.0 207.9 103.1" fill="#333333" fill-rule="evenodd" stroke="none"/>
  </g>
</svg>
