<?xml version="1.0" encoding="UTF-8" standalone="no"?>
<svg xmlns:xlink="http://www.w3.org/1999/xlink" height="104.95px" width="144.7px" xmlns="http://www.w3.org/2000/svg">
  <g transform="matrix(1.0, 0.0, 0.0, 1.0, 0.0, 0.0)">
    <path d="M16.85 98.9 L15.6 99.3 Q11.5 86.0 8.75 57.5 6.25 32.2 6.25 12.4 L6.3 8.5 1.95 9.1 0.75 8.95 0.55 8.8 0.15 8.5 Q0.0 8.35 0.0 7.5 0.0 6.2 6.6 4.7 6.8 3.45 7.2 4.55 L9.2 4.1 Q20.8 1.75 40.55 0.85 L40.55 0.55 Q71.8 0.55 72.6 0.85 L113.6 1.1 Q113.7 0.85 113.95 0.75 L114.9 0.55 127.95 0.3 129.1 0.1 137.0 0.0 138.05 0.25 Q138.45 0.45 138.45 1.3 L138.05 2.0 138.0 2.1 137.0 2.85 136.75 2.85 132.45 3.0 127.4 3.4 116.05 3.4 115.9 3.85 114.9 3.95 72.9 3.95 72.05 3.75 41.25 3.75 12.9 7.6 8.05 8.25 Q9.4 15.65 9.65 21.0 9.65 25.55 10.1 33.4 L10.75 46.1 Q10.9 53.8 13.95 75.2 L17.0 96.45 16.85 98.9 M136.75 4.85 Q136.8 3.4 138.1 2.2 142.2 13.1 143.15 30.4 L143.7 44.85 Q144.05 53.5 144.7 59.15 L144.7 97.45 144.15 97.7 143.3 98.1 143.1 98.05 Q142.35 97.85 141.95 97.45 L141.95 97.2 141.85 97.0 141.85 59.95 140.35 45.35 139.1 33.05 Q136.75 10.0 136.75 4.9 L136.75 4.85 M134.5 97.8 Q134.5 100.4 127.5 102.05 122.5 103.2 108.1 104.95 L75.75 104.95 74.85 104.7 58.7 104.4 55.2 104.0 51.65 103.55 18.55 103.55 Q17.9 103.85 16.55 103.55 L16.45 102.05 Q16.45 101.25 17.9 100.45 L51.9 100.45 55.65 100.85 59.45 101.3 76.45 101.85 107.25 101.85 Q117.55 101.2 126.7 98.85 L134.2 96.75 134.35 96.9 134.5 97.8" fill="#000000" fill-rule="evenodd" stroke="none"/>
    <path d="M136.75 2.85 L136.75 4.85 136.75 4.9 Q136.75 10.0 139.1 33.05 L140.35 45.35 137.65 45.6 137.25 46.35 Q137.05 46.65 135.95 46.65 127.45 46.65 104.1 38.95 L74.05 28.45 Q70.45 27.25 39.05 18.4 13.05 11.1 13.05 10.15 L13.25 10.05 12.9 7.6 41.25 3.75 72.05 3.75 72.9 3.95 114.9 3.95 115.9 3.85 116.05 3.4 127.4 3.4 132.45 3.0 136.75 2.85" fill="#202020" fill-rule="evenodd" stroke="none"/>
    <path d="M141.85 97.0 L134.5 97.8 134.35 96.9 134.2 96.75 126.7 98.85 Q117.55 101.2 107.25 101.85 L76.45 101.85 59.45 101.3 55.65 100.85 51.9 100.45 17.9 100.45 16.85 98.9 17.0 96.45 13.95 75.2 Q10.9 53.8 10.75 46.1 L10.1 33.4 Q9.65 25.55 9.65 21.0 9.4 15.65 8.05 8.25 L12.9 7.6 13.25 10.05 13.05 10.15 Q13.05 11.1 39.05 18.4 70.45 27.25 74.05 28.45 L104.1 38.95 Q127.45 46.65 135.95 46.65 137.05 46.65 137.25 46.35 L137.65 45.6 140.35 45.35 141.85 59.95 141.85 97.0" fill="#333333" fill-rule="evenodd" stroke="none"/>
  </g>
</svg>
