<?xml version="1.0" encoding="UTF-8" standalone="no"?>
<svg xmlns:xlink="http://www.w3.org/1999/xlink" height="105.6px" width="136.7px" xmlns="http://www.w3.org/2000/svg">
  <g transform="matrix(1.0, 0.0, 0.0, 1.0, 0.0, 0.0)">
    <path d="M136.25 0.3 Q136.7 0.55 136.7 1.4 L136.4 2.0 Q136.7 3.0 136.7 6.25 L136.7 6.75 136.65 7.75 134.7 27.75 Q132.45 48.8 131.0 56.55 129.55 64.4 126.45 83.15 123.8 96.65 120.6 103.3 L120.75 104.1 Q120.75 104.55 119.35 105.6 L92.7 105.6 81.45 104.6 70.85 103.6 24.05 103.35 Q23.4 103.1 18.2 103.3 L10.45 103.9 1.35 103.9 0.85 103.7 0.4 103.5 Q0.0 103.2 0.0 102.3 L0.0 102.05 0.0 101.4 Q0.0 93.75 1.1 87.9 2.2 82.05 2.2 69.6 2.2 59.9 1.4 50.25 0.55 40.6 0.55 26.15 0.55 15.6 0.7 12.15 0.9 5.75 1.6 3.1 L1.1 2.3 Q1.1 1.25 1.8 0.9 L4.7 0.0 37.1 0.0 Q39.8 1.35 44.55 1.4 L50.3 1.55 69.95 1.75 77.15 2.2 84.35 2.65 108.9 2.65 119.85 1.3 130.1 0.0 135.3 0.0 136.25 0.3 M123.35 77.2 L129.3 50.0 131.6 36.6 Q132.55 29.05 132.1 23.2 L132.65 16.55 133.2 9.55 133.35 9.05 133.75 7.7 Q134.65 4.4 135.25 2.9 L120.05 4.3 109.75 5.7 83.6 5.7 76.35 5.3 69.15 4.9 50.15 4.6 Q46.95 3.6 36.85 3.2 L11.4 3.2 4.95 3.2 3.8 3.6 Q4.3 5.25 4.15 7.35 L3.35 13.85 3.35 26.35 Q3.35 39.85 4.2 49.05 5.05 58.3 5.05 69.5 5.05 83.6 4.75 88.8 4.25 97.2 3.05 101.05 L9.5 100.65 14.4 100.2 Q24.05 100.0 24.75 100.2 L71.15 100.55 92.85 102.5 118.05 102.75 Q118.6 98.05 122.9 79.05 L123.35 77.2" fill="#000000" fill-rule="evenodd" stroke="none"/>
    <path d="M11.4 3.2 L36.85 3.2 Q46.95 3.6 50.15 4.6 L69.15 4.9 76.35 5.3 83.6 5.7 109.75 5.7 120.05 4.3 135.25 2.9 Q134.65 4.4 133.75 7.7 L133.35 9.05 133.2 9.55 132.65 16.55 132.1 23.2 Q132.55 29.05 131.6 36.6 L129.3 50.0 123.35 77.2 121.9 76.95 121.7 77.65 120.9 77.85 Q107.75 72.85 91.45 63.25 82.05 57.65 61.25 43.95 51.15 37.35 33.65 24.6 10.55 7.75 10.55 5.4 10.55 4.85 10.8 4.6 10.9 4.45 11.4 4.25 L11.4 3.2" fill="#202020" fill-rule="evenodd" stroke="none"/>
    <path d="M11.4 3.2 L11.4 4.25 Q10.9 4.45 10.8 4.6 10.55 4.85 10.55 5.4 10.55 7.75 33.65 24.6 51.15 37.35 61.25 43.95 82.05 57.65 91.45 63.25 107.75 72.85 120.9 77.85 L121.7 77.65 121.9 76.95 123.35 77.2 122.9 79.05 Q118.6 98.05 118.05 102.75 L92.85 102.5 71.15 100.55 24.75 100.2 Q24.05 100.0 14.4 100.2 L9.5 100.65 3.05 101.05 Q4.25 97.2 4.75 88.8 5.05 83.6 5.05 69.5 5.05 58.3 4.2 49.05 3.35 39.85 3.35 26.35 L3.35 13.85 4.15 7.35 Q4.3 5.25 3.8 3.6 L4.95 3.2 11.4 3.2" fill="#333333" fill-rule="evenodd" stroke="none"/>
  </g>
</svg>
