<?xml version="1.0" encoding="UTF-8" standalone="no"?>
<svg xmlns:xlink="http://www.w3.org/1999/xlink" height="338.05px" width="528.45px" xmlns="http://www.w3.org/2000/svg">
  <g transform="matrix(1.0, 0.0, 0.0, 1.0, 0.0, 0.0)">
    <path d="M50.3 335.7 L45.6 335.75 Q41.85 322.0 36.4 283.95 L31.4 248.05 30.4 241.05 29.2 232.75 Q24.95 203.25 21.8 187.85 L20.25 180.05 Q13.75 147.15 8.55 114.0 4.65 89.15 2.55 70.05 0.0 47.25 0.0 32.65 0.0 28.15 0.15 26.3 0.45 23.0 1.3 20.95 L0.55 20.7 Q0.15 20.4 0.15 19.45 0.15 18.1 32.2 13.85 66.3 9.3 83.25 9.65 L105.0 9.35 214.95 1.75 268.55 1.45 292.05 0.3 292.05 0.0 492.4 0.0 494.1 0.55 Q500.95 2.45 510.45 2.25 518.25 2.05 520.2 3.75 L520.2 3.65 Q522.5 2.45 525.0 3.65 L525.0 37.9 Q527.7 51.8 528.25 63.3 L528.4 70.05 528.45 86.9 Q528.45 103.75 527.75 112.5 L527.75 190.15 Q525.45 220.9 522.85 248.05 L520.55 270.45 Q516.25 310.4 512.65 324.4 L513.8 324.4 514.95 324.7 Q515.45 324.95 515.45 326.05 L515.35 327.2 515.0 327.75 511.65 327.95 Q510.25 331.95 509.0 331.95 L507.45 331.8 507.25 331.6 506.8 331.25 Q506.65 331.15 506.65 330.05 L506.8 328.4 506.25 328.5 496.1 328.7 485.2 329.2 462.85 329.55 455.3 330.3 437.6 331.25 394.1 331.6 Q390.15 331.7 385.25 332.8 L370.1 334.05 208.4 334.4 199.65 335.05 187.6 336.05 152.3 336.2 Q116.9 336.45 116.1 336.65 L98.8 337.0 89.65 337.55 80.65 338.05 52.75 338.05 51.55 337.65 Q51.1 337.3 51.1 336.15 L51.15 335.8 Q51.2 335.0 51.65 334.8 L52.75 334.65 80.3 334.4 89.75 333.9 99.15 333.35 118.1 332.65 187.95 332.3 Q190.7 331.4 208.7 330.6 L370.45 330.25 385.6 329.0 Q390.45 327.9 393.9 327.8 L437.25 327.45 446.4 326.8 462.1 325.8 Q485.55 325.45 486.6 325.1 L505.9 324.75 507.3 324.6 Q508.45 316.4 511.95 296.9 517.6 265.35 518.2 259.5 L519.35 248.05 Q521.8 221.85 524.3 189.1 L524.3 110.4 Q525.0 102.8 525.0 87.15 L524.95 70.05 524.85 64.65 Q524.3 53.3 521.6 40.0 L521.6 6.2 520.85 5.15 520.35 4.25 519.75 5.15 Q519.35 5.7 518.45 5.7 L494.1 3.55 492.7 3.2 291.8 3.2 268.85 4.55 215.05 4.85 Q158.6 7.85 104.25 12.55 L83.4 12.8 31.6 17.45 21.55 18.8 5.5 21.0 1.95 21.0 Q3.5 28.05 4.3 40.2 L5.45 60.2 6.25 70.05 6.95 80.1 Q7.9 91.7 8.85 100.0 10.8 116.45 15.55 139.85 L23.8 179.7 23.9 180.05 Q27.35 197.9 33.95 241.05 L35.0 248.05 36.7 259.3 Q43.85 306.75 50.3 335.7" fill="#000000" fill-rule="evenodd" stroke="none"/>
    <path d="M51.15 335.8 L50.3 335.7 Q43.85 306.75 36.7 259.3 L35.0 248.05 33.95 241.05 Q27.35 197.9 23.9 180.05 L23.8 179.7 15.55 139.85 Q10.8 116.45 8.85 100.0 7.9 91.7 6.95 80.1 L6.25 70.05 5.45 60.2 4.3 40.2 Q3.5 28.05 1.95 21.0 L5.5 21.0 21.55 18.8 31.6 17.45 83.4 12.8 104.25 12.55 Q158.6 7.85 215.05 4.85 L268.85 4.55 291.8 3.2 492.7 3.2 494.1 3.55 518.45 5.7 Q519.35 5.7 519.75 5.15 L520.35 4.25 520.85 5.15 521.6 6.2 521.6 40.0 Q524.3 53.3 524.85 64.65 L524.95 70.05 525.0 87.15 Q525.0 102.8 524.3 110.4 L524.3 189.1 Q521.8 221.85 519.35 248.05 L518.2 259.5 Q517.6 265.35 511.95 296.9 508.45 316.4 507.3 324.6 L505.9 324.75 486.6 325.1 Q485.55 325.45 462.1 325.8 L446.4 326.8 437.25 327.45 393.9 327.8 Q390.45 327.9 385.6 329.0 L370.45 330.25 208.7 330.6 Q190.7 331.4 187.95 332.3 L118.1 332.65 99.15 333.35 89.75 333.9 80.3 334.4 52.75 334.65 51.65 334.8 Q51.2 335.0 51.15 335.8 M66.6 33.3 Q69.4 32.55 69.4 31.45 L69.25 30.55 69.1 30.4 Q62.95 30.3 61.45 32.2 60.95 32.85 60.95 35.9 60.95 38.5 61.3 39.15 62.25 41.0 66.3 42.0 L72.5 42.0 73.9 40.5 Q73.9 39.65 73.5 39.45 L72.5 39.2 Q65.8 38.7 64.3 37.8 63.75 37.45 63.75 35.9 63.75 34.05 66.6 33.3 M43.9 42.7 L44.2 43.1 45.3 44.3 53.8 44.3 56.6 43.55 Q57.5 43.35 57.5 42.25 L57.35 41.35 57.2 41.15 Q55.45 41.0 53.25 41.1 L45.3 41.45 44.4 41.65 Q43.9 41.85 43.9 42.7 M53.4 33.4 L53.25 33.2 47.85 32.9 Q43.9 33.0 41.5 34.25 L40.85 32.9 47.75 31.15 55.9 29.35 56.3 28.05 55.9 27.4 Q55.4 26.85 54.95 26.7 L43.7 28.5 Q39.9 29.35 39.0 30.55 38.05 29.85 37.05 29.9 L37.05 34.2 Q37.65 35.6 38.85 40.3 39.45 42.2 40.2 43.2 39.8 43.45 39.35 43.65 34.25 40.0 26.0 37.05 29.35 36.4 30.55 34.95 31.35 34.0 31.35 32.35 31.35 25.3 22.55 26.25 19.3 26.6 16.5 28.0 L14.45 29.25 Q14.05 29.1 13.9 29.9 L13.75 30.45 13.8 31.2 13.75 32.1 Q13.75 34.4 15.5 41.05 17.2 47.55 18.05 48.85 L19.35 48.3 19.45 45.05 Q19.45 42.75 18.1 38.2 L37.3 45.4 Q38.25 45.4 38.55 45.05 L39.35 43.65 40.45 43.55 Q41.15 44.3 41.9 44.3 L42.9 44.1 43.1 43.9 43.3 43.3 43.35 43.2 43.35 42.75 43.35 42.35 Q43.35 39.9 42.4 36.8 L43.6 36.85 49.4 36.0 Q53.5 35.1 53.5 34.25 L53.4 33.4 M105.5 30.95 Q103.45 31.05 102.85 32.6 102.65 33.0 102.6 33.6 102.45 34.9 102.85 36.5 L102.95 39.55 Q103.25 41.4 104.3 42.55 L113.4 42.55 114.35 41.8 114.85 41.05 114.75 40.4 114.35 40.0 113.4 39.75 105.7 39.5 105.5 30.95 M87.35 28.85 L86.85 28.7 Q87.2 28.4 85.8 28.4 L82.85 30.6 80.2 32.8 Q77.5 28.75 76.05 27.05 73.35 23.95 73.35 28.55 73.35 28.25 75.35 32.2 77.7 36.05 79.65 36.3 L79.65 37.3 79.75 42.0 Q80.1 45.0 81.6 46.55 L83.0 45.85 83.0 40.3 Q82.4 39.45 82.5 36.25 L82.45 35.1 84.05 33.95 86.7 31.6 Q87.55 30.55 87.55 29.7 87.55 28.9 87.35 28.85 M96.15 32.3 Q97.6 31.5 98.35 31.45 L98.2 30.55 98.05 30.4 Q91.0 30.35 88.5 33.05 L87.9 33.75 Q87.0 35.2 87.0 39.8 87.0 41.8 87.15 42.5 87.4 43.95 88.45 44.85 L92.5 45.5 94.9 46.0 96.1 45.7 96.7 44.55 Q95.8 43.4 94.65 42.8 92.85 41.9 89.85 41.75 L89.85 37.9 Q93.25 33.8 96.15 32.3 M127.55 35.8 Q130.7 34.4 130.7 33.35 L130.55 32.35 130.35 32.1 Q126.2 32.55 122.3 33.6 120.45 34.05 119.35 34.55 L119.35 30.95 127.55 30.7 129.0 29.15 Q129.0 28.3 128.55 28.05 L127.55 27.85 Q119.5 26.35 117.2 29.85 116.05 31.6 116.5 34.0 L116.7 39.1 116.85 39.95 Q117.4 42.75 119.0 44.3 L124.75 44.3 Q128.0 43.0 130.7 42.5 131.8 42.35 131.8 41.6 L131.7 40.75 131.55 40.6 Q129.85 40.4 126.55 40.65 L120.35 41.15 119.85 39.65 119.35 38.15 119.35 37.4 119.85 37.4 Q123.95 37.4 127.55 35.8 M162.45 168.4 L162.45 130.1 Q161.8 124.45 161.45 115.8 L160.9 101.35 Q159.95 84.05 155.85 73.15 L155.75 73.05 155.8 72.95 Q156.2 72.6 156.2 72.25 156.2 71.4 155.8 71.2 L154.75 70.95 146.85 71.05 145.7 71.25 132.65 71.5 131.7 71.7 Q131.45 71.8 131.35 72.05 L90.35 71.8 Q89.55 71.5 58.3 71.5 L58.3 71.8 Q38.55 72.7 26.95 75.05 L24.95 75.5 Q24.55 74.4 24.35 75.65 17.75 77.15 17.75 78.45 17.75 79.3 17.9 79.45 L18.3 79.75 18.5 79.9 19.7 80.05 24.05 79.45 24.0 83.35 Q24.0 103.15 26.5 128.45 29.25 156.95 33.35 170.25 L34.6 169.85 35.65 171.4 Q34.2 172.2 34.2 173.0 L34.3 174.5 Q35.65 174.8 36.3 174.5 L69.4 174.5 72.95 174.95 76.45 175.35 92.6 175.65 93.5 175.9 125.85 175.9 Q140.25 174.15 145.25 173.0 152.25 171.35 152.25 168.75 L159.6 167.95 159.7 168.15 159.7 168.4 Q160.1 168.8 160.85 169.0 L161.05 169.05 161.9 168.65 Q162.3 168.4 162.45 168.4 M203.0 34.35 L203.3 34.0 Q201.45 30.85 197.55 28.25 193.55 25.55 189.6 24.9 179.5 23.25 179.5 35.5 179.5 48.3 198.5 48.3 203.05 48.3 204.8 47.55 206.15 46.95 206.15 45.6 L206.0 44.7 205.85 44.55 204.4 44.3 Q191.65 44.3 186.65 42.15 182.25 40.25 182.25 35.7 182.5 33.7 183.3 31.8 184.9 28.05 187.55 28.05 192.15 28.05 197.1 31.35 L201.85 34.65 203.0 34.35 M220.35 30.95 L216.25 31.85 Q212.35 32.7 211.55 34.05 210.75 35.4 210.45 36.45 L210.25 37.05 Q210.1 37.85 210.1 39.8 210.1 41.25 210.5 42.25 L211.2 43.45 Q213.75 46.0 221.75 46.0 227.3 46.0 230.0 40.6 231.7 37.15 231.7 33.75 231.7 30.25 228.35 28.5 224.5 26.5 220.35 30.95 M248.85 33.6 Q247.4 29.6 246.15 29.6 244.25 29.6 242.9 31.95 L241.05 35.2 Q235.4 28.0 233.95 31.35 233.65 31.95 233.55 33.85 233.4 35.65 233.4 38.7 233.4 41.15 233.55 42.25 233.85 44.6 234.8 45.4 L236.1 45.0 Q236.2 37.5 236.8 34.3 L238.9 38.05 Q240.6 40.9 241.6 40.9 242.75 40.9 244.0 37.65 245.4 33.9 245.85 33.5 246.45 37.55 247.5 41.25 248.9 46.55 250.15 46.55 L251.2 46.3 251.35 46.0 251.55 43.8 249.85 36.65 248.85 33.6 M255.05 28.8 Q253.75 29.45 253.75 30.8 L253.95 31.8 254.4 33.1 Q255.15 34.95 256.1 35.2 L257.2 39.5 Q259.75 48.3 260.9 48.3 L262.0 48.05 262.25 47.75 262.3 46.15 Q262.3 42.6 258.65 34.2 L257.4 31.6 257.35 31.35 260.2 30.7 265.0 30.25 265.1 31.1 262.05 33.15 Q260.05 34.45 260.05 34.75 L260.15 35.75 260.6 36.05 260.65 36.2 261.75 36.3 Q264.55 36.3 266.45 34.15 267.65 32.85 267.9 31.7 L268.0 30.95 267.9 29.0 Q267.55 27.95 266.0 27.25 L260.9 27.5 Q256.6 27.95 255.05 28.8 M285.6 31.25 L289.35 34.2 Q290.7 35.2 290.7 37.0 290.7 37.95 289.9 39.65 L288.95 41.75 285.45 41.75 Q279.95 41.85 276.6 39.15 274.25 37.25 274.25 35.9 274.25 33.85 275.5 32.75 277.5 31.0 282.9 30.45 L283.25 29.15 282.85 28.5 281.9 27.85 Q275.0 27.55 272.65 30.6 272.0 31.45 271.7 32.7 271.35 33.9 271.35 35.55 271.35 44.85 287.3 44.85 290.75 44.85 292.45 41.75 293.6 39.65 293.6 37.0 293.6 34.25 292.75 32.5 291.35 29.6 287.55 29.6 L286.2 29.75 285.6 29.9 285.6 31.25 M299.35 29.9 L299.35 29.65 Q301.25 28.95 304.1 28.15 306.0 27.5 306.0 26.35 L305.9 25.45 305.75 25.25 Q300.75 25.4 297.85 26.5 294.7 27.7 294.7 29.8 294.7 30.45 295.25 31.05 296.9 32.85 303.5 34.25 312.3 36.1 312.3 38.6 312.3 39.95 312.05 39.5 L305.55 40.85 Q300.2 42.25 299.2 44.45 L299.35 45.3 299.9 45.8 301.15 46.0 Q307.05 46.0 311.3 43.35 315.1 40.9 315.1 38.25 315.1 35.65 311.45 33.65 L310.05 33.0 Q306.25 31.3 299.35 29.9 M336.2 75.2 L335.15 74.9 310.6 76.15 Q286.5 78.4 266.55 78.3 L186.45 78.3 185.7 77.55 185.7 80.15 Q184.85 80.5 184.55 80.75 L184.7 81.6 185.15 82.1 185.95 82.3 Q188.85 94.25 191.0 109.0 192.5 119.5 194.15 135.85 195.5 149.25 198.2 163.15 198.8 166.25 199.45 177.2 199.75 183.15 200.75 187.2 L199.8 187.45 Q199.3 187.65 199.3 188.55 L200.75 190.1 201.65 190.1 201.85 190.65 203.15 190.25 203.2 190.1 229.1 190.1 290.1 184.65 Q311.2 182.95 316.9 181.3 L317.55 181.6 317.85 181.0 Q319.0 180.5 319.0 180.05 L318.9 179.2 318.75 179.05 318.65 179.05 Q322.25 170.35 325.1 157.0 328.4 139.85 330.45 131.8 331.15 128.8 333.75 108.45 336.6 86.45 336.6 81.15 L336.55 78.0 336.3 76.8 336.6 76.25 Q336.6 75.4 336.2 75.2 M335.25 24.4 L335.25 24.7 326.3 25.4 Q325.85 24.6 325.6 25.5 L317.25 26.75 Q313.7 27.45 310.0 28.7 L310.15 30.1 Q310.35 30.4 311.1 30.55 L313.1 30.7 321.05 29.0 325.3 28.25 325.25 30.05 328.15 44.2 330.2 52.35 330.3 52.3 331.05 52.15 331.9 52.0 333.7 51.85 333.85 51.85 332.6 46.75 329.9 38.3 327.3 28.05 335.25 27.85 336.25 27.3 Q336.6 26.85 336.6 25.95 336.6 25.05 336.2 24.75 L335.25 24.4 M411.6 24.75 Q409.8 25.15 409.15 26.25 408.65 26.95 408.65 27.95 L410.55 35.6 Q413.1 43.1 416.65 43.1 417.55 43.1 417.95 42.65 L418.35 41.8 Q418.15 40.8 416.3 38.65 414.45 36.55 414.25 35.5 416.45 35.5 428.0 38.05 L430.45 37.7 430.85 36.3 Q430.15 35.45 426.9 34.5 L423.15 33.5 Q428.4 31.9 429.3 30.9 429.7 30.45 429.7 28.0 L429.55 25.0 Q429.2 23.75 427.15 22.15 L411.6 24.75 M407.45 23.2 L407.3 23.0 Q399.35 22.65 390.95 24.05 383.85 25.25 382.6 26.3 L382.75 27.1 Q383.7 27.85 385.45 27.85 L388.5 27.25 394.15 26.45 393.95 28.05 395.65 36.8 Q397.8 45.4 399.85 45.4 400.7 45.4 401.0 45.05 L401.4 44.7 396.05 26.4 406.1 25.65 407.2 25.1 Q407.55 24.7 407.55 24.1 L407.45 23.2 M453.85 34.7 L454.1 34.0 Q453.1 31.4 450.55 28.7 448.6 26.7 445.85 24.65 441.5 21.4 435.6 18.45 L435.4 22.15 435.95 31.5 436.55 35.15 Q437.65 40.3 439.65 40.3 440.5 40.3 440.75 39.95 L441.05 39.6 441.05 37.05 440.1 32.35 440.75 32.35 446.2 30.65 Q451.2 35.2 452.65 35.2 453.55 35.2 453.85 34.7 M467.85 19.0 L466.85 18.7 460.65 19.05 Q455.15 19.15 453.4 20.7 452.4 21.55 452.4 23.45 452.4 24.7 453.6 25.75 454.8 26.8 457.2 27.6 462.0 29.2 462.0 31.0 L461.2 32.4 460.35 34.0 Q460.35 34.9 460.75 35.3 L461.75 35.75 Q464.2 34.75 464.7 33.6 464.9 33.2 464.9 30.9 464.9 28.55 463.9 28.0 460.4 26.45 455.4 23.45 L458.3 22.4 466.85 21.6 467.85 20.8 Q468.25 20.45 468.25 20.1 468.25 19.2 467.85 19.0 M501.5 73.15 L496.3 73.15 486.05 74.45 475.1 75.8 450.55 75.8 443.35 75.35 436.15 74.9 416.5 74.7 410.75 74.55 Q406.0 74.5 403.3 73.15 L370.9 73.15 368.0 74.05 Q367.3 74.4 367.3 75.45 367.3 75.7 367.8 76.25 367.1 78.9 366.9 85.3 366.75 88.75 366.75 99.3 366.75 113.75 367.6 123.4 368.4 133.05 368.4 142.75 368.4 155.2 367.3 161.05 366.2 166.9 366.2 174.55 L366.2 175.2 366.2 175.45 Q366.2 176.35 366.6 176.65 L367.05 176.85 367.55 177.05 376.65 177.05 384.4 176.45 Q389.6 176.25 390.25 176.5 L437.05 176.75 447.65 177.75 458.9 178.75 485.55 178.75 Q486.95 177.7 486.95 177.25 L486.8 176.45 Q490.0 169.8 492.65 156.3 495.75 137.55 497.2 129.7 498.65 121.95 500.9 100.9 L502.85 80.9 502.9 79.9 502.9 79.4 Q502.9 76.15 502.6 75.15 L502.9 74.55 Q502.9 73.7 502.45 73.45 L501.5 73.15 M488.35 29.25 L488.15 27.5 Q488.15 18.25 486.75 20.85 485.3 23.4 485.3 27.8 L485.6 29.45 475.65 30.25 475.6 26.05 Q475.4 23.0 474.8 21.0 L474.15 22.5 Q473.3 24.7 473.05 26.4 472.9 27.25 472.9 30.95 L472.85 31.0 472.25 31.9 472.4 32.8 472.95 33.15 Q473.05 36.35 473.55 40.6 L473.8 40.75 475.1 40.9 476.3 40.65 476.65 40.05 Q476.8 40.8 476.8 39.4 L476.25 35.15 476.0 33.5 486.15 32.8 486.4 34.45 Q487.85 40.9 489.5 40.9 L490.65 40.6 490.8 40.3 491.0 39.85 491.05 39.0 489.6 34.25 488.95 31.85 Q489.85 31.2 489.85 30.25 489.85 29.4 489.4 29.2 L488.4 28.95 488.4 29.25 488.35 29.25" fill="#dddddd" fill-rule="evenodd" stroke="none"/>
  </g>
</svg>
