<?xml version="1.0" encoding="UTF-8" standalone="no"?>
<svg xmlns:xlink="http://www.w3.org/1999/xlink" height="177.35px" width="120.2px" xmlns="http://www.w3.org/2000/svg">
  <g transform="matrix(1.0, 0.0, 0.0, 1.0, 0.0, 0.0)">
    <path d="M111.3 22.2 L111.0 23.1 Q109.65 27.65 109.65 30.3 109.65 34.15 111.05 37.4 L114.1 43.15 Q117.75 50.1 118.4 60.2 L118.5 64.4 Q118.5 71.55 114.05 82.05 L114.0 82.25 Q89.0 75.45 73.25 69.15 L52.85 60.2 45.05 56.85 48.05 51.0 Q49.0 49.2 52.55 45.8 L57.7 40.45 Q59.4 38.2 67.1 36.15 76.9 33.5 79.55 32.2 84.25 29.85 86.85 27.8 89.7 25.55 90.8 22.95 L94.1 17.15 95.0 15.45 Q95.8 16.2 98.65 17.4 L102.8 18.85 Q103.3 18.95 107.55 20.75 L111.3 22.2 M111.95 7.45 L112.15 7.0 Q100.3 3.65 97.35 3.0 L97.75 2.0 Q100.45 2.1 108.8 5.05 118.15 8.35 118.15 9.55 118.15 11.05 115.75 14.2 L114.45 16.1 Q112.35 14.65 105.7 12.15 100.15 10.05 97.75 9.55 L98.1 8.5 97.85 7.65 97.05 6.45 96.9 6.25 109.45 9.45 109.95 9.3 110.15 8.95 Q109.2 8.4 102.95 6.75 L98.9 5.7 96.2 5.3 96.0 4.8 Q96.0 4.55 96.9 3.55 L97.0 3.45 Q98.7 4.4 103.7 5.9 109.5 7.6 111.65 7.6 L111.95 7.45 M86.85 133.95 L87.0 134.1 Q84.8 136.75 81.25 144.7 76.9 154.5 74.55 158.5 64.6 175.55 48.6 175.55 38.15 175.55 37.9 166.75 L38.3 160.7 Q38.5 157.95 37.3 157.95 36.75 157.95 36.6 158.2 L36.5 158.4 36.5 167.4 34.05 167.4 Q34.05 166.8 33.85 166.65 L33.2 166.45 30.45 167.65 24.95 168.35 Q20.0 168.35 18.45 164.45 L18.15 162.6 21.45 161.1 21.3 160.9 21.15 160.65 21.0 160.4 20.9 160.15 20.8 159.85 20.75 159.6 20.7 159.5 17.75 160.95 17.25 159.65 Q16.6 160.15 16.4 161.55 12.85 162.95 10.55 162.95 5.4 162.95 3.05 156.7 1.7 153.0 1.7 149.3 1.7 137.3 13.8 113.95 L21.4 99.95 22.15 100.35 Q38.55 107.7 49.3 111.65 61.05 115.95 78.65 121.0 L87.0 121.85 92.4 122.85 90.75 125.15 Q86.45 131.25 83.4 134.95 83.4 135.55 83.65 135.85 83.8 136.0 84.25 136.15 L86.8 134.0 86.85 133.95 M95.6 9.2 L95.65 9.15 95.7 9.2 95.6 9.2" fill="#cccccc" fill-rule="evenodd" stroke="none"/>
    <path d="M111.95 7.45 L111.65 7.6 Q109.5 7.6 103.7 5.9 98.7 4.4 97.0 3.45 L96.9 3.55 Q96.0 4.55 96.0 4.8 L96.2 5.3 98.9 5.7 102.95 6.75 Q109.2 8.4 110.15 8.95 L109.95 9.3 109.45 9.45 96.9 6.25 97.05 6.45 97.85 7.65 98.1 8.5 97.75 9.55 Q100.15 10.05 105.7 12.15 112.35 14.65 114.45 16.1 L115.75 14.2 Q118.15 11.05 118.15 9.55 118.15 8.35 108.8 5.05 100.45 2.1 97.75 2.0 L97.35 3.0 Q100.3 3.65 112.15 7.0 L111.95 7.45 M111.3 22.2 L107.55 20.75 Q103.3 18.95 102.8 18.85 L98.65 17.4 Q95.8 16.2 95.0 15.45 L94.1 17.15 90.8 22.95 Q89.7 25.55 86.85 27.8 84.25 29.85 79.55 32.2 76.9 33.5 67.1 36.15 59.4 38.2 57.7 40.45 L52.55 45.8 Q49.0 49.2 48.05 51.0 L45.05 56.85 52.85 60.2 73.25 69.15 Q89.0 75.45 114.0 82.25 L114.05 82.05 Q118.5 71.55 118.5 64.4 L118.4 60.2 Q117.75 50.1 114.1 43.15 L111.05 37.4 Q109.65 34.15 109.65 30.3 109.65 27.65 111.0 23.1 L111.3 22.2 M95.7 9.2 L95.75 9.25 95.9 8.6 95.1 7.2 Q94.3 5.95 94.3 5.0 94.3 3.75 96.05 1.3 L96.4 0.9 96.35 0.55 Q96.35 -1.25 108.1 2.6 119.85 6.45 119.85 9.65 119.85 11.7 117.75 15.2 116.05 18.0 114.2 20.0 L113.7 19.5 113.7 19.55 113.35 21.4 113.3 22.15 113.1 22.3 112.55 24.45 Q111.4 28.9 111.4 30.55 111.4 33.0 112.8 36.25 L115.8 42.65 Q119.4 50.75 120.05 60.2 L120.2 64.35 Q120.2 71.55 116.05 82.8 L117.05 83.05 117.0 83.9 116.3 84.0 115.65 83.85 Q113.1 90.35 109.25 98.2 L105.9 104.75 Q94.45 126.5 86.85 133.95 L86.8 134.0 84.25 136.15 Q83.8 136.0 83.65 135.85 83.4 135.55 83.4 134.95 86.45 131.25 90.75 125.15 L92.4 122.85 87.0 121.85 78.65 121.0 Q61.05 115.95 49.3 111.65 38.55 107.7 22.15 100.35 L22.15 99.6 Q30.1 102.3 48.65 109.4 66.65 116.0 80.3 119.6 L85.55 120.15 90.75 120.65 92.0 121.2 93.15 121.7 Q100.3 111.05 105.55 99.8 L106.35 98.2 113.5 83.4 Q92.45 78.75 73.15 70.95 64.95 67.65 49.5 60.2 L44.55 57.8 43.35 60.2 39.45 68.05 36.6 73.85 Q30.5 85.65 24.4 94.1 L22.1 98.55 21.75 99.25 21.7 99.3 21.7 99.35 21.4 99.85 21.4 99.9 21.4 99.95 13.8 113.95 Q1.7 137.3 1.7 149.3 1.7 153.0 3.05 156.7 5.4 162.95 10.55 162.95 12.85 162.95 16.4 161.55 16.6 160.15 17.25 159.65 L17.75 160.95 20.7 159.5 20.75 159.6 20.8 159.85 20.9 160.15 21.0 160.4 21.15 160.65 21.3 160.9 21.45 161.1 18.15 162.6 18.45 164.45 Q20.0 168.35 24.95 168.35 L30.45 167.65 33.2 166.45 33.85 166.65 Q34.05 166.8 34.05 167.4 34.05 168.15 31.5 169.1 28.5 170.2 25.0 170.2 20.0 170.2 17.7 166.45 16.7 164.85 16.45 163.25 12.5 164.75 10.35 164.75 3.9 164.75 1.35 157.6 0.0 153.8 0.0 149.4 0.0 138.1 10.3 116.6 15.85 105.15 22.2 94.65 22.65 92.25 30.45 77.75 L39.45 61.55 40.25 60.2 47.6 47.8 Q51.8 40.95 58.05 37.2 65.7 32.65 81.55 29.0 85.75 28.1 87.95 24.45 L91.15 18.5 Q92.05 17.3 94.55 11.15 L95.2 9.75 95.6 9.2 95.7 9.2 M87.0 134.1 L87.6 134.45 87.85 135.3 Q87.85 136.15 83.25 145.45 L76.6 158.05 Q74.55 163.65 70.35 168.25 62.15 177.35 48.7 177.35 39.45 177.35 37.4 174.15 36.75 173.15 36.65 171.5 L36.5 169.35 36.5 167.4 36.5 158.4 36.6 158.2 Q36.75 157.95 37.3 157.95 38.5 157.95 38.3 160.7 L37.9 166.75 Q38.15 175.55 48.6 175.55 64.6 175.55 74.55 158.5 76.9 154.5 81.25 144.7 84.8 136.75 87.0 134.1 M97.35 10.45 L97.25 10.6 Q96.35 12.3 95.9 12.55 L95.45 14.25 Q99.15 15.25 104.0 17.1 108.9 19.0 111.9 20.55 112.65 18.55 113.35 17.75 L98.1 10.65 97.4 10.3 97.35 10.45" fill="#000000" fill-rule="evenodd" stroke="none"/>
    <path d="M98.1 10.65 L113.35 17.75 Q112.65 18.55 111.9 20.55 108.9 19.0 104.0 17.1 99.15 15.25 95.45 14.25 L95.9 12.55 Q96.35 12.3 97.25 10.6 L97.35 10.45 97.8 10.55 98.1 10.65 M104.5 87.55 L105.6 87.45 Q106.3 87.15 106.3 86.3 106.3 85.15 91.35 80.6 79.6 77.05 72.6 75.3 68.75 74.35 65.0 72.55 L59.4 70.1 Q51.55 67.05 47.05 66.4 42.1 65.65 42.1 68.0 42.1 69.1 43.95 69.0 47.8 68.9 51.9 69.85 53.75 70.3 58.45 72.75 61.3 74.25 65.05 75.65 L72.65 78.35 88.6 83.65 Q101.2 87.55 104.5 87.55 M81.6 98.2 L81.95 97.85 82.0 98.0 84.55 98.2 84.65 98.2 Q85.45 98.2 85.35 97.95 L84.95 97.4 83.4 97.2 82.65 97.2 85.2 94.7 Q85.15 96.4 85.4 98.2 85.75 100.6 86.65 103.3 L87.05 102.85 Q86.65 101.35 86.4 98.2 L85.85 93.4 Q84.25 93.75 81.3 96.45 L79.65 98.2 Q78.35 99.8 78.7 100.75 L79.2 100.9 81.6 98.2 M21.7 99.3 L21.75 99.25 22.1 98.55 24.4 94.1 Q30.5 85.65 36.6 73.85 L39.45 68.05 43.35 60.2 44.55 57.8 49.5 60.2 Q64.95 67.65 73.15 70.95 92.45 78.75 113.5 83.4 L106.35 98.2 105.55 99.8 Q100.3 111.05 93.15 121.7 L92.0 121.2 90.75 120.65 85.55 120.15 80.3 119.6 Q66.65 116.0 48.65 109.4 30.1 102.3 22.15 99.6 L21.7 99.3 M70.65 87.0 L70.15 92.3 Q69.85 95.2 69.85 96.85 69.85 97.7 70.0 98.2 L70.1 98.55 72.0 98.6 74.45 98.2 Q76.2 97.5 77.1 95.65 77.85 94.1 77.85 92.05 77.85 91.55 76.5 90.4 74.7 88.9 72.35 88.9 71.8 88.9 71.8 89.05 L71.9 89.15 71.9 89.45 Q72.3 90.05 77.0 91.95 76.8 94.05 75.95 95.2 74.45 97.3 70.7 97.7 L70.7 95.9 Q71.4 95.05 71.4 90.65 L71.15 87.0 70.65 87.0 M56.25 91.9 Q56.25 92.75 57.15 94.1 L62.1 94.2 Q64.5 94.2 65.95 91.95 66.95 90.35 66.95 89.2 L66.85 87.85 Q66.4 87.05 64.5 86.2 L64.2 86.25 64.15 86.7 64.15 87.2 65.75 88.5 Q66.1 88.65 66.1 89.15 66.1 90.4 64.45 91.75 62.1 93.75 57.85 93.3 L57.5 92.75 Q57.15 92.25 57.15 91.75 57.15 89.9 59.55 88.9 62.9 87.45 64.25 85.85 59.15 86.2 57.35 88.3 56.25 89.55 56.25 91.9 M54.95 84.3 L55.4 83.85 48.5 83.5 Q47.8 83.95 47.6 84.4 L47.4 85.45 Q47.4 87.1 49.15 87.85 50.85 88.55 50.85 90.25 50.95 91.0 50.5 91.65 49.7 92.95 47.2 92.95 46.75 92.95 46.1 91.85 L45.25 90.35 44.65 90.7 Q45.4 92.35 46.55 93.75 L49.5 93.85 51.15 92.65 52.0 91.4 Q52.0 89.7 50.15 87.75 48.25 85.8 48.25 85.35 48.25 84.8 48.4 84.7 L48.85 84.55 54.95 84.3 M28.15 95.2 Q28.15 96.35 29.9 96.15 L36.6 96.45 39.45 97.55 40.9 98.2 41.75 98.6 48.9 101.25 Q53.05 102.8 55.75 103.45 L74.6 108.75 Q87.3 112.4 90.4 112.4 L91.65 112.3 Q92.35 112.05 92.35 111.15 92.35 110.0 76.25 105.75 L57.35 101.1 49.55 98.2 Q43.2 95.85 39.45 94.6 L37.9 94.05 Q28.15 90.75 28.15 95.2" fill="#ff0000" fill-rule="evenodd" stroke="none"/>
    <path d="M81.6 98.2 L79.2 100.9 78.7 100.75 Q78.35 99.8 79.65 98.2 L81.3 96.45 Q84.25 93.75 85.85 93.4 L86.4 98.2 Q86.65 101.35 87.05 102.85 L86.65 103.3 Q85.75 100.6 85.4 98.2 85.15 96.4 85.2 94.7 L82.65 97.2 83.4 97.2 84.95 97.4 85.35 97.95 Q85.45 98.2 84.65 98.2 L84.55 98.2 82.0 98.0 81.95 97.85 81.6 98.2 M104.5 87.55 Q101.2 87.55 88.6 83.65 L72.65 78.35 65.05 75.65 Q61.3 74.25 58.45 72.75 53.75 70.3 51.9 69.85 47.8 68.9 43.95 69.0 42.1 69.1 42.1 68.0 42.1 65.65 47.05 66.4 51.55 67.05 59.4 70.1 L65.0 72.55 Q68.75 74.35 72.6 75.3 79.6 77.05 91.35 80.6 106.3 85.15 106.3 86.3 106.3 87.15 105.6 87.45 L104.5 87.55 M28.15 95.2 Q28.15 90.75 37.9 94.05 L39.45 94.6 Q43.2 95.85 49.55 98.2 L57.35 101.1 76.25 105.75 Q92.35 110.0 92.35 111.15 92.35 112.05 91.65 112.3 L90.4 112.4 Q87.3 112.4 74.6 108.75 L55.75 103.45 Q53.05 102.8 48.9 101.25 L41.75 98.6 40.9 98.2 39.45 97.55 36.6 96.45 29.9 96.15 Q28.15 96.35 28.15 95.2 M54.95 84.3 L48.85 84.55 48.4 84.7 Q48.25 84.8 48.25 85.35 48.25 85.8 50.15 87.75 52.0 89.7 52.0 91.4 L51.15 92.65 49.5 93.85 46.55 93.75 Q45.4 92.35 44.65 90.7 L45.25 90.35 46.1 91.85 Q46.75 92.95 47.2 92.95 49.7 92.95 50.5 91.65 50.95 91.0 50.85 90.25 50.85 88.55 49.15 87.85 47.4 87.1 47.4 85.45 L47.6 84.4 Q47.8 83.95 48.5 83.5 L55.4 83.85 54.95 84.3 M56.25 91.9 Q56.25 89.55 57.35 88.3 59.15 86.2 64.25 85.85 62.9 87.45 59.55 88.9 57.15 89.9 57.15 91.75 57.15 92.25 57.5 92.75 L57.85 93.3 Q62.1 93.75 64.45 91.75 66.1 90.4 66.1 89.15 66.1 88.65 65.75 88.5 L64.15 87.2 64.15 86.7 64.2 86.25 64.5 86.2 Q66.4 87.05 66.85 87.85 L66.95 89.2 Q66.95 90.35 65.95 91.95 64.5 94.2 62.1 94.2 L57.15 94.1 Q56.25 92.75 56.25 91.9 M70.65 87.0 L71.15 87.0 71.4 90.65 Q71.4 95.05 70.7 95.9 L70.7 97.7 Q74.45 97.3 75.95 95.2 76.8 94.05 77.0 91.95 72.3 90.05 71.9 89.45 L71.9 89.15 71.8 89.05 Q71.8 88.9 72.35 88.9 74.7 88.9 76.5 90.4 77.85 91.55 77.85 92.05 77.85 94.1 77.1 95.65 76.2 97.5 74.45 98.2 L72.0 98.6 70.1 98.55 70.0 98.2 Q69.85 97.7 69.85 96.85 69.85 95.2 70.15 92.3 L70.65 87.0 M21.4 99.9 L22.15 100.35 21.4 99.95 21.4 99.9" fill="#ffffff" fill-rule="evenodd" stroke="none"/>
  </g>
</svg>
